<?xml version="1.0" encoding="UTF-8"?>
<svg id="Layer_1" data-name="Layer 1" xmlns="http://www.w3.org/2000/svg" viewBox="0 0 244.83 582.38">
  <defs>
    <style>
      .cls-1 {
        fill: #64fd07;
      }

      .cls-2 {
        fill: #dc4a40;
      }

      .cls-3 {
        fill: #9a6b48;
      }

      .cls-4 {
        fill: #ffd35c;
      }

      .cls-5 {
        fill: #f6a5a5;
      }

      .cls-6 {
        fill: blue;
      }

      .cls-7 {
        fill: #f7c9a3;
      }

      .cls-8, .cls-9 {
        fill: #5c91d2;
      }

      .cls-8, .cls-10, .cls-11 {
        stroke: #000;
        stroke-miterlimit: 10;
      }

      .cls-12 {
        fill: #d1001f;
      }

      .cls-13 {
        fill: #fff;
      }

      .cls-14 {
        fill: #deb887;
      }

      .cls-15 {
        fill: #2500bf;
      }

      .cls-16 {
        fill: #6b4a3a;
      }

      .cls-17 {
        fill: #d4a100;
      }

      .cls-10 {
        fill: none;
      }

      .cls-18 {
        fill: #2e3192;
      }
    </style>
  </defs>
  <path class="cls-11" d="M1.52,557.74c.97-6.87,3.81-12.95,9.73-17.15,1.21-.86,2.13-1.99,3.15-3.23,5.81-7.01,10.96-14.45,14.64-22.87.83-1.91-6.44-2.18-7.58-9.8-.77-5.17-.65-10.25.33-15.34,1-5.19,4.33-8.72,9.45-10.31l9.36-53.32,1.54-8.44c-4.16-1.86-8.08-4.15-10.58-7.98-4.98-7.65-3.4-22.61-2.22-31.89.05-.16.1-.32.13-.49.15-.76.23-1.53.35-2.29.05-.33.1-.66.18-.98.07-.33.57-1.61.05-.46,0-.02.01-.05.02-.07.22-.52.38-1.02.48-1.53.1-.31.21-.61.31-.92.02-.04.05-.08.07-.12.75-1.68,1.25-3.55,1.76-5.35.2-.39.4-.78.6-1.18.38-.77.72-1.57,1.02-2.37.02-.05.03-.08.04-.11.19-.25.35-.52.49-.79,0,0,0,0,0-.01l1.62-1.95c.42-.35.8-.76,1.09-1.21.06-.1.12-.2.17-.31l2.11-2.53c-.26-.93-1.47-2.21-2.46-2.34-.42-.65-.97-1.22-1.61-1.66-.43-.29-.87-.57-1.31-.85l-5.86-6.46c-5.64-6.35-10.94-12.71-15.17-20.09-6.82-11.89-6.14-17.66-1.82-30.1-2.16-1.64-4.28-3.23-5.76-5.43-1.43-2.13-1.22-5.44.21-7.81,7.57-12.55,15.27-24.72,23.68-36.77,4.16-5.96,8.69-11.08,14.19-15.71,3.96-3.34,8.45-5.36,13.09-7.44.71-1.15,1.84-2.73,3.17-3.32,5.86-2.57,11.52-4.66,17.72-6.31,5.5-1.46.67,1.73,9.81-1.5,3.32-1.18,6.19-1.69,9.76-1.95l-.16-4.36c-13.53-3.33-23.85-7.82-33.97-17.55-.32,1.15-.75,2.77-1.54,3.49-.89.81-2.41-.34-2.88-1.11-1.74-2.91-3.48-5.51-5.48-8.18-16.56,1.98-30.91-13.62-29.93-29.85l-.64-.27c-1.96,1.21-9.71,2.07-9.58-.26.03-.45.42-1.24.83-1.71,2.85-3.26,3.74-8.05,2.32-12.26l-2.18-6.44c-2.35.36-9.28.65-9.72-1.63-.09-.44.25-1.51.64-1.86l6.34-5.68c-7.3-16.55-6.42-37.9-.67-55.18,8.75-26.3,32.55-44.22,58-52.96-.27-3.06.95-5.6,3.53-7.17,6.01-3.66,18.62-5.96,22.86.92,31.77-2.99,76.93,6.53,96.26,34.77,14.75,1.41,31.7,5.43,42.98,15.62,4.28,3.86,7.57,8.39,9.09,13.94,2.85,10.38-3.18,18.13-12.42,21.93,4.25,3.96,9.99,2.77,10.84,3.78.19.23.21,1.21.05,1.51-2.91,5.34-10.84,7.11-16.86,6.37,10.2,17.65-5.28,29.78-5.89,25.71-.33-2.23-.77-4.92-1.19-6.88-1.47,6.32-3.39,15.85-7.96,19.71,2.16,12.66-4.27,27.4-17.04,31.32-4.58,12.08-13.82,18.61-25.37,23.87-10.47,4.76-22.26,7.51-33.62,8.73-.55.06-.88,2.06-.62,2.21,3.07.45,5.94,1.24,8.68,2.53l2.61-.17c5.96,1.41,11.99,3.82,17.69,6.39,1.66.75,2.77,2.44,4.13,3.3,3.69,2.35,7.5,4.18,10.85,7.13,5.19,4.57,9.54,9.68,13.61,15.31l8.92,12.36,4.32,5.98c3.22,4.46,10.76,12.53,5.97,18.84-1.2,1.59-2.5,3.05-3.95,4.67,3.14,8.56,5.72,14.37,5.27,24.06-.8,17.17-6.27,37.56-15.43,52.27,1.61,12.63,2.67,24.91,2.69,37.6l.05,28.49c.03,17.2-.99,33.98-2.46,51.07,7.14,4.59,6.36,13.82,5.09,21.03-.74,4.22-2.01,7.94-6.1,10.42,1.4,1.73,2.6,4.23,4.55,5.28,2.13,1.14,2.67,3.29,4.24,4.59,2.09,1.73,4.89,4.16,7.24,5.31,3.96,1.95,8.29,2.52,11.72,5.51,4.33,3.78,6.87,8.32,7.79,14,.96,5.94,2.43,12.71-4.08,16.74-11.78,7.29-31.71,8.23-45.37,6.41-13.27-1.77-25.74-5.25-38.19-9.92-4.65-1.74-8.92-3.61-13.08-6.14-7.4-4.5-4.71-11.56-4.06-17.51.34-3.16-.12-6.51.7-9.6l2.71-10.21c-9.62-3.57-8.6-13.09-8.94-22.35-.18-4.98,2.04-9.12,6.76-11.27l-3.93-50.22-11.33,33.44-8.69,23.73c7.46,8.06,2,15.63-.06,22.26-1.87,6.02-5.86,10.16-12.43,11.23.08,2.28.21,4.48.75,6.59,1.14,4.5.47,8.77.88,13.28l.68,7.35c.39,4.27-1.27,8.07-4.13,11.26-12.24,13.62-26.34,20.9-44.7,22.82-12.66,1.33-29.16.4-39.79-6.99-6.22-4.32-3.92-11.44-3.19-16.65ZM4.48,557.06c5.22,7,18.48,9.09,26.3,9.65,10.23.74,20.25-.25,29.92-3.59-.17-20.48-29.39-27.07-45.53-21.48-6.33,2.2-9.97,9.36-10.68,15.41ZM86.37,524.99c.48-.58,1.84-.96,1.93-1.55.12-.71-.04-2.34-.2-2.89-4.79.71-8.94,1.17-13.87,1.36-1.35,7.04-3.79,13.85-7.42,20.22-2.37,3.24-5.21,5.69-8.86,7.95,2.9,3.53,4.44,7.63,4.64,12.32,7.38-3.14,13.57-7.92,19.62-13.23-2.53-8.5-1.5-17.41,4.16-24.18ZM83.54,547.97c2.3-2.36,5.21-4.87,6.09-8.05,1.35-4.92.38-10.16-1.1-15-5.96,5.07-7.12,15.63-4.98,23.04ZM54.19,521.61c-6.43-2.58-13.57-2.79-20.33-1.48-1.7.33-3.33,1.65-3.07,3.52,11.29-2.72,23.97-.32,32.48,7.64.66.62,2.04.82,2.58.4,4.2-3.27-9.26-9.11-11.66-10.08ZM61.94,521.61l-5.52-.36,4.32,2.18,1.2-1.82ZM52.38,536.38c2.79,1.9,5.18,5.77,7.21,4.27.54-.4.7-2.05.21-2.61-4.57-5.17-10.54-8.03-17.23-9.41-3.35-.69-17.93-2.28-15.98,3.77l3.62-.72c7.59-1.52,15.59.22,22.16,4.71ZM27.41,537.37c8.05.54,15.41,1.75,22.5,5.86l3.37-4.53c-6.51-4.89-14.03-6.72-21.99-6.04-1.5,1.33-2.53,2.39-3.89,4.71ZM55.56,532.64c1.04-1.03,1.97-2.21,2.71-3.52-4.96-3.59-16.56-5.77-21.97-5.06-.9.12-1.97,2.16-2.18,2.73,10.55.6,12.1,1.15,21.44,5.85ZM67.09,527.63c.82.64,1.06,2.71.68,3.75-.37,1.03-2.14,2.16-3.54,1.79-2-.53-3.14-1.89-4.65-3.47l-2.89,4.08c2.7,2.08,6.31,4.65,4.23,7.79-1.68,2.54-5.26-.62-6.64-2.01l-3.17,4.25,5.9,4.98c8.85-3.86,14.05-17.39,15.75-26.79l-9.06-.29-1.21,2.33,4.59,3.59ZM16.36,539.04l9.18-1.55,2.7-3.77c-1.28-.16-2.49-.31-2.97-.78-.52-.52-.48-2.32.17-3.04,3.05-3.31,6.49-.92,8.21-5.44-1.22.39-2.25.73-2.88.44-.7-.32-1.29-1.98-1.06-2.89.84-3.33,6.6-1.51,6.15-5.58l-3.95-1.78-2.43,5.29c-2.29,4.99-9.06,14.56-13.13,19.1ZM34.04,369.06c-2.76,10.16-3.98,20.86-2.73,31.37,1.05,8.85,6.14,12.51,14.14,15.2,14.72,4.94,35.49,6.27,49.86-.05,4.44-1.95,7.65-5.51,9.06-10.2,3.29-10.92,3.63-30.84,4.05-42.92l-5.37,3.74c.16,10.56-1,21.15-2.72,31.78-.78,4.8-2.46,9.68-7.03,12.04-6.27,3.24-13.27,4.01-20.36,4.17-9.4.2-18.36-1.05-27.09-4.28-1.23-.45-2.22-.83-2.98-2.42l4.83,1.66c9.08,3.12,18.64,3.98,28.3,3.55-.05-11,.64-21.72,2-32.99-7.59.12-15.06.02-22.58-1.42-5.26-.97-10.05-2.34-14.96-4.63-2.05,11.88-5.29,22.63,1.42,33.96-8.97-5.57-4.29-26.13-2.63-34.48l-5.22-4.09ZM110.94,365.95l-.06,2.88,8.7.08-.51-6.93c-.26-3.57-.27-6.82-.3-10.52l-5-.06-3.65,8.86.81,4.79,5.64.39-5.63.51ZM147.03,368.66c2.23-.29,3.77-2.12,3.8-4.33.07-5.45.02-10.74-.31-16.1-.17-2.77-2.52-4.23-5.11-3.93-6.98.8-13.7,1.27-20.73,1.54-1.84.07-3.85,1.42-3.94,3.41-.28,5.85-.11,11.48.47,17.58.18,1.88,2,3.33,3.62,3.33,7.54-.04,14.79-.51,22.21-1.49ZM129.03,392.7c1.61,1.64,7.61,4.4,9.57,3.85.38-.1.79-.85.98-1.38,2.68-7.67,3.52-15.76,3.5-23.74l-12.84.99c.03,6.64-.24,13.05-1.21,20.28ZM123.4,343.88l21.51-1.78c1.79-.15,3.86.72,5.45.67,2.73-.09,15.33-2.79,18.06-4.1,2.51-1.21,4.59-1.86,7.28-2.37,4.62-.87,8.92-3.57,12.97-6.09.64-10.44-2.16-28.72-5.52-38.19-1.16-3.26-4.88-5.48-4.61-9.61l3.78,6.01c-1.11-5.21-2.73-9.72-4.79-14.3l-3.24-7.18c-1.18,3.61-4,6.37-7.87,6.58-4.09.22-8.4-2.35-9.73-6.31-.94-2.8.23-5.51,1.05-8.6-3.83-.2-7.51-.07-11.47.09-15.23.64-30.1,1.54-45.55,3.76,1.48,3.01,2.94,5.94,2.83,9.12-.11,3.13-2.72,5.7-4.84,6.93-3.1,1.79-6.2,1.53-9.41.14-5.71-2.48-5.21-6.49-5.27-11.85l-2.13-.25c-1.37,9.75-2.91,19.28-5.08,29.03-2.28,10.24-7.66,23.07-17.66,28.37l2.03,3.74v-4.17c1.49,1.46.23,3.39.78,5.02.82,2.41,2.39,4.96,3.94,6.99.56.73,2.9.12,3.7-.29,3.33-1.72,6.26.76,8.95,3,4.65-4.86,10.02-1.27,14.34,1.92,1.16-2.99,3.35-7.66,6.33-7.55,3.71.13,4.25,7.09,3.04,10.64,3.98,1.2,2.64-5.35,8.6-11.14,1.11-1.08,3.92-2.12,4.92-.56,2.43,3.78,2.1,8.92.51,12.94,2.54,1.61,4.85-.41,7.1-.6ZM152.44,366.32c6.74-1.1,12.61-2.61,19.44-4.5.88-5.79.45-11.75-.92-17.21-1.1.31-13.69,4.22-12.96,2.55l12.81-3.24c-.38-1.24-.76-2.17-1.24-2.86l-18.04,3.95.63,2.4c.81,6.42.8,12.46.27,18.91ZM173.66,362.21c1.52.11,4.77-.49,5.17-2.3,1.41-3.25-.04-19.57-3.39-21.34-1.36-.53-3.37.52-4.63,1.09,3.4,5.34,3.68,15.79,2.86,22.55ZM179.39,341.66l1.87,13.14c1.82-.79,2.9-1.8,4.65-1.23l-4.71,1.9-.23,2.96c4.19-1.62,7.38-3.17,11.09-5.51.51-6.92-.26-13.84-2.26-20.87-3.97,2.6-7.74,4.54-12.09,6.19l1.41,2.55,4.3-1.9c2.08-.92,3.76-2.36,6.36-3.07.06,1.46-8.46,5.61-10.38,5.83ZM180.32,361.41c2.74,5.67,8.52,12.82,14.76,14.17l-2.55-20.22-7.72,3.93-4.49,2.12ZM177.29,269.51c-.44-2.88-1.33-5.98-2.26-9.25l-.23-.8c-.06-.21-.43-.68-.52-.48-1.06,2.1,1.1,7.23,3.01,10.53ZM170.81,259.92c-2.29-2.66-6.99-3.51-9.9-1.58-2.15,1.43-3,4.89-2.53,7.5.55,3.06,3.05,4.69,5.65,5.49,3.35,1.03,7.5-1.05,8.22-4.77.38-1.99-.1-5.07-1.44-6.64ZM153.22,256.3l-.98-6.47c-13.14,1.86-26.38,3.35-39.83,4.11l-8.66.49-.17,5.49c16.44-2.15,33.05-3.25,49.65-3.62ZM98.1,263.48c-2.83-1.54-6.89-.8-9.41,1.04-3.2,2.33-3.82,7.56-1.12,10.48,2.18,2.37,5.27,3.27,8.07,2.6,2.34-.56,5.17-2.45,5.79-5.34.64-3.01-.46-7.21-3.32-8.77ZM77.21,281.09l-8.05.88-3.43,9.46-4.67,12.33c-1.84,2.88-.36,12.7-.17,16.52,5.13-3.97,7.76-9.15,10.33-14.55,1.94-4.07,2.94-8.43,3.88-12.86.83-3.89,1.67-7.41,2.12-11.78ZM55.96,342.63c-1.81-1.4-4.22-1.58-6.37-.62-1.97.88-3.15,2.98-3.51,5.43-.43,2.85,1.22,5.91,4.46,5.86,2.59-2.81-2.42-5.94,2.73-8.05l-1.89,3.08,1.9-.39c-1.93,5-2.88,13.49,3.29,16.22,2.8,1.24,6.09,1.24,9,.69l.63-2.34c1.08,3.1,5.55.88,7.78-.37,3.43-1.93,5.03-5.63,3.66-9.56-.68-1.95-2.01-3.81-3.28-5.81,1.13-.49,1.78.81,2.23,2.21,2.97-.77,4.07-4.54,2.3-7.34-.99-1.56-2.77-3.13-4.4-4.07-2.88-1.67-6.25-.17-7.26,2.79.78.8,1.91,1.37,3.02,1.87.35.02-.79.64-1.21.45-4.41-1.91-11.05-1.21-14.88,3.44-.61-1.69,1.09-2.14,1.81-3.48ZM50.26,355.7c-.86-.61-2.25-1.21-3.45-1.56-2.17,2.17-3.43,4.94-2.9,8.17.21,1.26,1.82,2.75,3.25,3.16l7.51,2.12c.49.14,1.71-.24,1.76-.7.21-2.1-6.79-2.68-6.16-11.18ZM79.94,371.7l-.21,6.56c7.64-.6,14.8-1.5,21.98-4.48l-.02-6.77-5.12,1.77c-5.3,1.83-10.57,2.25-16.62,2.92ZM90.74,367.38c-.68-.84-1.46-1.66-2.02-1.65-.57.01-1.07,1.11-1.46,2.46,1.27.05,2.37-.18,3.48-.81ZM79.54,379.46l-2.02,32.89c2.41.17,4.3-.15,6.65-.57,10.86-1.95,14.37-5.71,15.46-16.71l1.96-19.77c-7.04,2.64-14.48,4.1-22.05,4.17ZM85.21,368.41c2.16-1.88,1.56-5.21,1.18-7.8,1.88.78,1.16,3.66,1.62,3.66h.72c.18.02.23-.65.2-.85l-.43-3.05,2.55,1.34c.4.48-.71,1.9-1.65,3.09.47.48,1.75,1.78,2.36,2.22,1.25.91,4.99-.04,5.72-1.42,1.07-2.01,1.79-4.36,2.18-6.52.36-2.06-1.48-4.63-3.33-5.26-1.34-.46-3.86.85-3.77,1.96l.67,2.58c-1.07.12-1.34-.85-1.75-1.67l-.57-1.14c-.16-.32-1.17.17-1.49.35l-.69.37c-.2.11-.54-.45-.67-.64-.13-.19.62-.46,1.19-.71.37-.16-.36-1.23-.76-1.34-.4-.11-1.17.2-1.73.44-1.95-1.48-4.8-2.74-7.23-1.67.92,6.89-1.01,8.49-6.63,12.14,5.32,4.54,4.48,6,12.34,3.9ZM98.8,342.1c-.35.68-.25,1.78.37,2.7,1.51-1.99,1.87-4.15,1.65-6.71l-2.03,4.01ZM99.62,334.58c-2.03-.96-4.44,4.79-5.39,7.01l3.32,1.42c.54-1.57,4.49-7.29,2.07-8.43ZM99.27,346.75c-.76-3.24-4.94-2.39-6.33-3.65-2.1-1.91-3.09-3.5-5.92-4.16-2.38-.55-5.66-1.94-7.28,1.14,1.64,2.12,2.36,4.99.97,7.59l-1.96,3.66,2.16-1.54c4.16,1.78,5.12.43,9.97,3.93,1.26.91,2.66-1.3,2.79-2.56l.51-5.21c3.49,2.63-2.42,7.25,2.76,5.96l2.43,1.74,2.56-5.02c.27-.53-.16-1.67-.73-2.07-.72,1.65-1.38,3.02-2.36,4.34.23-1.65.62-3.22.41-4.14ZM72.24,365.88c-2.37-1.15-4.79.03-7.28.64-3.35.82-5.94-1.24-7.39.45-1.79,2.09,13.53,2.23,14.98,2.42.66-.66.53-3.11-.31-3.52ZM115.3,340.75c.16-1.77.66-6.92-.7-7.86-2-1.39-5.76,4.21-6.5,6.95l4.5,1.69c.65.24,2.64-.04,2.71-.78ZM114.31,350.37l4.58-.04.55-3.01h-3.96c-.45.45-.82,1.74-1.17,3.05ZM114.68,343.43l-7.33-2.16-6.43,13.61c2.15,4.69.28,4.6-.54,9.98,2.16-.55,3.21-1.35,4.87-2.44,1.38-.91,2.32-2.26,3.06-3.99l6.37-14.99ZM36.69,361.47c-1.16,1.74-1.97,3.95-2.27,6.48l5.09,3.77c.74-1.95.76-3.21,2.26-4.81l-1,5.43c8.92,3.86,18.59,5.75,28.68,5.83l8.7.07c.14-2.61.35-4.4.98-6.42-11.27.02-34.11-.8-42.44-10.35ZM13.27,317.14c3.66,7.86,8.5,14.55,14.27,21.09,4.82,5.47,10.4,11.19,15.8,15.56.43.35,1.62.25,1.82-.1.2-.36.04-1.16-.19-1.76-1.26-3.29-.88-7.58,1.72-10.16,2.86-2.84,7.44-2.81,10.94-.71,2.65-.87,4.94-1.39,7.48-1.24l1.04.06c.26.02.17-.78.21-1.05.05-.25-.88-.16-1.36-.17l-10.5-17.78c-2.61-4.42-5.08-8.56-7.94-12.77-1.78-2.61-3.6-4.4-7.41-4.83,2.86-1.27,5-.03,6.9,2.55l2.23-4.52c-9.98-5.8-20.28-10.27-31.6-12.76-4.41,10.02-8.16,18.4-3.42,28.58ZM58.75,317.55l-.83-10.08c-1.68,2.83-1.09,5.47-1.53,8.24-.4,2.48.23,4.92,2.19,6.85.51-1.55.32-3.19.17-5.01ZM55.63,305.97l-5.31-3.3-1.66,2.32c2.32.8,4.15,1.18,6.97.98ZM49.49,308.06l4.38,6.52.72-5.99-5.1-.52ZM42.67,232.07l1.47,1.35-2.76-.06c-4.55,4.69-8.64,9.69-12.24,15.24l-11.48,17.74c5.07.53,9.4,1.41,13.6,3.05l-.83,1.18c-.17.25-1.14-.14-1.44-.22l-12.01-3.07-6.06,9.65,7.15,1.77-7.6-.66c-1.02,1.6-2.71,4.16-2.81,6-.18,3.38,2.67,5.23,5.28,7.03l1.5-3.21-4.71-1.01c-.31-.07-.82-.26-1.06-.35-.31-.12.74-1.15,1.12-1.15,4.23.03,8.88,1,13.06,2.29,10.86,3.35,20.94,7.79,30.36,14.45,1.42,1,2.28,2.29,3.23,3.61,2.17-1.96,2.81-4.7,3.91-6.98,1.91-3.95,3.06-7.86,4.52-11.84,2.05-5.61,4.25-11.41,5.54-17.03l-.88-.48c-.17-.09-.24-.81-.12-.66,2.96,3.71,1.78-18.07.94-19.45,3.81,1.07,3.11,14.66,2.67,17.45-.81,5.09-2.06,9.22-3.62,14.41l8.04-.85,2.21-14.09c-.59-1.27-1.63-2.83-2.03-4.18-3.22-11.13-8.51-26.61-15.11-35.97l-5.02,2.36c1.82,1.71,3.59,3.32,5.01,5.68l-5.31-4.43c-.96-.8-1.56-.92-1.46-2.45l-3.13-2.08c-3.75,1.85-6.86,4.12-9.94,6.97ZM53.83,224.31l3.4,2.48,4.51-1.89-2.51-2.78-5.4,2.19ZM79.24,212.94l.85,1.88-1.85-1.67c-4.83,1.12-9.72,2.71-14.58,4.9,2.64,2.86,5.03,5.4,6.34,8.9l-6.51-8.28c-.7-.89-3.2.48-3.49,1.38,9.53,8.68,16.02,28.64,19.49,40.94.63,2.22,2.22,4.23,4.65,3.44-1.48-3.63-2.78-6.92-3.37-11.01l1.49,3.48,1.85-1.32-1.63,2.3,1.87,6.3c4.79-2.51,8.9-4.08,14.22-3.82-.05-2.35-.71-5.03-2.18-7.09-2.17-.32-4.74.2-6.81.59l-5.03.94c-.18.03-.69.28-.69.14l-.05-.76c4.21-1.04,8.21-1.89,12.57-2.36-.14-1.79-2.23-3-1.3-5.31,2.13,3.22,3.35,4.32,1.64,6.15-.21.23,1.2.74,1.33,1.04.67,1.62,1.09,4.78,1.33,6.83,2.04-.21,2.89-2.66,2.4-4.54-2.58-9.9-6.01-19.39-10.3-28.69-1.06-2.29-8.49-17.54-12.23-14.4ZM87.47,212.15l-2.45.64c2.03,2.72,4.48,6.33,6.22,9.19.24.4,1.2.38,1.8.25l-3.63-4.71c-1.2-1.56-1.55-3.18-1.94-5.38ZM60.38,185.81c2.27-2.05-1.72-6.31-3.6-7.61l3.6,7.61ZM7.73,125.78c5.25,2.31,8.7-1.53,10.85-1.89.19-.03.34.62.2.75l-.6.56c-4.31,4.04,5.97,10-1.28,22.5,2.32.37,6.73-.25,6.91-2.38l.81-9.17,1.34,4.8c1.25-3.25,4.04-5.73,6.55-8.12-1.17-2.74-1.89-5.89-1.11-8.86l1.95,8.75c4.06-.78,8.64-1.78,12.07.34,5.59,3.45,8.6,9.42,11.09,15.48,3.65-2.78-.1-8.99.83-13.07.57-2.47,2.12-4.52,3.25-6.71l-8.09,1.21c2.12-3.42,8.58-1.85,15.48-6.44,6.39-4.25,10.16-10.91,12.47-18.09,1.13-.48,1.91-1.29,2.11-2.43l.57-3.16c-11.48.18-22.13-1.24-32.61-5.47-2.36,1.18-4.23,2.3-6.41,3.7l.8,3.71-8.42,8.15c.09-3.34,5.96-6.4,6.88-11.38-9.14,3.27-4.29,5.76-10.01,11.2l2.08-6.62c-2.92,1.72-5.39,3.35-7.74,5.44l-15.33,13.56c-1.39,1.23-3.1,2.41-4.63,3.65ZM15.88,58.71c-7.86,17.24-9.52,41.04-2.2,59l5.2-4.55c8.66-7.58,17.37-14.21,27.45-19.42,2.02-1.04,3.6-2.44,4.96-4.24-6.6-20.11-7.5-52.9,7.44-69.6l3.71-3.54c-19.68,8.33-37.48,22.43-46.55,42.34ZM71.38,10.65c7.35-2.33,14.05-3.92,21.36-5.33-3.33-5.16-23.47-1.56-21.36,5.33ZM153.91,15.45c-26.42-9.73-58.6-12.27-85.04-1.4-6.26,2.58-10.24,8.2-13.63,13.66-8.73,16.61-7.86,42.87-2.72,60.76,11.67-10.19,23.34-18.6,36.58-26.01,15.39-8.74,31.18-14.61,48.07-18.76,15.42-3.79,34.61-5.19,51.04-4.14-7.78-11.18-21.88-19.54-34.29-24.11ZM238.89,82.7c3.48-4.42,3.63-10.08,1.39-15.27-5.6-12.97-22.19-20.53-35.35-23.17-55.67-11.14-112.31,10.1-153.65,47.85,5.79,2.66,11.47,3.53,17.42,4.46,53.17,8.27,70.43-44.66,118.87-47.94,12.53-.85,24.85,1.67,35.61,7.95,4.46,2.6,9.37,5.64,11.2,10.89-4.93-4.85-9.23-8.7-15.37-11.37-12.53-5.46-26.65-7.02-39.82-3.6,4.25.12,7.38.78,11.31,1.96,1.65.49,3.11,1.98,3.98,3.49.32.56-.39,1.85-.96,2.39,5.1,1.22,10.15,2.83,14.46,6,9.79,7.18,12.13,14.18,20.08,22.91,4.34-1.03,8.09-3.09,10.82-6.55ZM206.63,138.66c-3.38,1.18-6.64,2.16-10.23,2.88-3.91,10.27-1.49,17.47-2.49,28.05,11.55-4.42,16.6-20.09,12.72-30.93ZM211.36,131.35c4.57-5.54,4.75-12.21,3.68-19.71,4.08,3.83,5.21,9.04,6.32,14.31,6.58-5.77,5.91-18.53-.53-24.69l-3.76-3.6c1.34-.52,2.03-.16,3.11.52,5.81,3.66,13.3,3.09,18.77-1.4-15.4-2.37-17.42-16.73-30.17-27.06-7.58-6.14-16.69-8.53-26.61-7.41,3.27-2.86,7.35-2.79,10.7-2.31-.79-2.18-2.03-3.93-4.52-4.38-4.65-.84-10.04-2.47-14.91-1.64-11.37,1.95-28.24,14.51-37.52,21.59-7.05,5.37-14.03,10.37-21.84,15.03,6.06,11.46,7,27.36-1.81,37.87,7.46.36,14.15-2.07,20.03-6.08,12.82-8.76,18.82-23.71,15.93-38.9-.13-.68.05-2.25.07-3.15,3.01,7.37,6.1,9.19,8.21,18.01,1.59-2.52.91-5.29,1.31-8.72,3.59,4.86,4.8,10.71,5.41,16.46l6.6,1.45c4.02-4.77,5.18-11.23,5.35-17.5.21-7.47-1.94-13.77-6.27-20.33,4.15,1.62,5.35,6.15,6.76,9.67,2.24,5.62,1.55,11.08,1.43,16.97-.06,2.8,1.37,6.4,2.44,9.15,2.96,7.56,8.74,13.25,15.95,17.4.56-8.46-1.46-16.28-6.23-23.38,2.68.84,3.7,3.39,4.83,5.69,3.75,7.65,4.69,16.46,2.85,24.75-.85,3.82-2.74,6.53-5.94,9.34,7.74,1.07,15.53-2.08,20.38-7.95ZM162.46,115.01c2.55-1.59,3.97-2.92,6.04-5.61l-5.24-1.44-.81,7.05ZM132.77,213c-1.67,1.56-1.75-7.07-1.63-7.8l-6.38-.02c-.4,0-1.16-.46-1.4-.7-.23-.24.75-1.01,1.32-1.04,18.18-.72,43.61-6.25,57.6-19.15,6.67-6.14,10.19-14.5,9.55-23.67-.46-6.55-.02-12.71,1.51-19.1l-3.19-.38c-.42-.05-1.24-.74-1.44-1.1-1.14-2.12,5.23-2.91,5.42-10.09l.15-5.53c-9.32-5.09-16.19-13.61-18.37-23.88-1.05,2.9-2.19,5.16-3.76,7.62,1.83,1.94,7.66,6.25,6.26,9.96-2.71-2.65-5-5-8.35-6.81-1.51,1.58-8.28,8.49-10.09,5.75l1.04-6.24-3.84,1.2c-.38.12-1.37,0-1.73-.17-.36-.17-.65-1.27-.53-1.72.66-2.53,3.08-4.64,6.11-4.78-.43-3.49-1.14-6.91-2.43-9.92l-1.41,5.64c-.07.3-.98,1.06-1.2.92-.3-.19-.86-.83-.93-1.34-.46-3.3-1.87-7.23-4.03-10.62-.2,4.81-.44,9.62-2.19,14.45-5.51,15.21-20.86,27.51-37.42,26.05-.54-.05-1.58-.55-1.79-.96-.9-1.79,4.07-3.57,5.88-12.11,1.35-6.39,1.3-12.98-.59-19.33-1.82,4.1-4.39,6.76-7.63,9.29l1.16,2.74c.15.36.04,1.39-.18,1.72-.26.4-1.35.4-1.86.23-16.54-5.67-20.2,3.65-22.76,4.42-3.91,1.18,6.6-17.93,22.16-10.51,4.09-3.38,9.95-9.4,6.74-14.66-8.62,4.71-17.61,7.45-27.23,8.27-3.17,6.87-3.57,10.57-7.94,17.26-3.5,5.36-8.15,9.38-14.38,11.42-1.35,2.5-2.73,4.89-3.75,7.72-.79,2.2,2.83,13.23-1.74,14.69-.71.23-2.34-.61-2.7-1.39-2.3-5.04-4.72-10.14-9.21-13.63-2.71-2.1-7.17-2.19-10.28-1.17-4.39,1.44-7.14,5.12-8.3,9.54-3.41,12.95,3.57,26.42,16.04,31.27,4.78,1.86,11.56,2.15,16.08-1.98l-.23,2.08c11.78,17.48,29.43,22.84,49.55,27.58-2.63.52-5.22-.13-8.29-.62-.04,2.89.08,5.94-.99,8.7-.17.43-1.06,1.19-.88,1.53s.79,1.16,1.16,1.43c7.94,5.78,18.23,7.84,27.83,5.62,2.31-.53,4.36-1.71,5.98-3.17,1.4-1.25,1.57-3.36.54-4.46l-1.02.96ZM140.79,212.97c-1.15-1.97-4.21-2.33-7.05-2.6,2.54,1.17,3,4.12,1.35,6.46-6.89,9.72-34.32,5.55-39.82-5.48l2.05-1.41c-2.69-.44-5.44-.3-7.68,1.56-.75.62-.23,2.91.31,3.75,9.29,14.65,37.42,17.66,48.4,8.49,2.89-2.41,4.62-7.03,2.43-10.76ZM129.92,229.68c-11.63,2.5-23.86.51-33.85-5.84-1.32-.84-2.55-1.65-3.87-.02l5.98,13.49,21.05-1.83c2.84-.25,5.39-.24,8.3.63-1.6.31-3.29.65-5.31.8l-20.86,1.47c-.91.06-1.9.13-2.74.28l4.75,14.59,9.47-.67,39.44-4.04c-.22-5.16-1.2-10.46-2.63-15.32l-4.32.26,4.18-.99c-1.28-5.49-2.9-10.55-5.87-15.58-.74,7.42-7.56,11.44-13.72,12.76ZM165.18,222.01c-1.04-1.88-2.35-2.79-4.18-3.59-5.57-2.44-10.94-4.69-17.14-6.1,6.51,11.61,10.5,26.18,10.65,39.17.08,1.07.35,3.31,1.07,3.97,1.75,1.12,4.16.77,6.17.42,2.46-.43,9.61-.47,10.9,2.52,2.99-1.76.32-13.12-.41-16.37-1.59-7.01-3.6-13.76-7.06-20ZM195.36,252.35c-.18-.26-.95-1.01-1.16-.77l-1.07,1.24.84-2.39c-2.99-4.41-6.13-8.81-9.68-12.75-.59,1.27-.78,2.26-2.17,2.1l1.61-2.97c-4.29-5.2-9.37-9.83-15.59-13.28l2.86,6.47c.09.2,1,.32,1.2.21.25-.14-.47,1.29-.38,1.63l3.69,14.51,2.79-2.31c.12-.1,1.02.18.93.31-.14.19-.54.73-.73.89l-2.78,2.22.45,8.69c.33,3.23,2.04,6.24,2.78,9.15l3.49,13.75,8.67-5.67c4.53-2.96,8.24-6.68,11.04-11.24l-6.8-9.75ZM207.01,279.29c4.9-5.74.29-10.21-3.54-15.96-4.75,7.05-12.88,13.63-20.86,16.82l2.26,7.09c2.4-1.22,4.05-2.03,5.92-3.29l11.09-7.5c-3.06,4.54-8.05,7.01-12.62,9.29l-4.41,2.2,1.61,5.57c7.86-3.24,15.06-7.75,20.56-14.2ZM208.85,302.94c-.27-6.15-2.32-11.87-4.81-17.21-5.42,4.65-10.69,7.47-17.04,10.01l1.52,6.61,7.09-1.27c.52-.09,1.62,1,1.47,1.11-2.97.38-5.56.94-8.17,1.92.94,6.15,1.72,11.56,2.28,17.56.23,2.51-.78,5.43.03,7.73l1.83,5.21c2.32,6.6.68,17.13,2.4,22.06,8.05-14.83,14.13-37.21,13.4-53.72ZM195.77,513.85l-2.84-3.92-2.82,1.26c.67,1.02.9,1.34,1.12,2.34l-2.7-1.78c-4.05.98-8.57,1.96-12.46,3.91-1.85.93-9.24,5.45-7.2,8.02.71.89,2.57.89,3.23-.07,1-1.45,1.98-2.93,3.56-3.94,5.34-3.4,14.65-4.86,20.36-3.98l-.92,1.31c-.16.22.5.9.81.95l4.71.72c-1.51-3.75-1.56-.31-4.84-4.83ZM175.12,515.21l-4.56.4c-.36.03-.12,1.52.19,1.59.39.09.99-.06,1.44-.31l2.93-1.68ZM144.24,542.02c11.94,4.28,23.87,7.66,36.65,9.62.2-4.06,1.06-7.89,2.64-11.7-3.78-1.21-7.83-2.5-10.98-5.11-5.8-4.82-9.38-11.21-11.96-18.23-9.89.77-19.16-.38-28.47-2.57l-.4,3.16,3.36,1.01,1.69.08,3.55,2.97c6.16,5.15,5.72,13.56,3.92,20.78ZM173.56,533.74c3.05,2.55,6.94,3.88,10.56,5.32l3.11-4.08-4.9-4.02c-.82,1.32-1.86,2.53-2.92,2.72-1.63.3-3.92-.33-4.31-2.18-.56-2.62,1.14-3.7,3.01-5.28l-2.86-3.91-2.44,2.48c-.5.51-2.1.9-2.79.85-.78-.06-2.14-1.13-2.35-1.92-.59-2.19.75-3.7,2.44-5.1-.14-.72-.85-1.99-1.41-2.68l-6.61.57c2.74,6.67,6.09,12.72,11.48,17.23ZM188.22,533.78c4.04-3.68,8.66-5.64,13.98-7.43-1.12-.95-3.06-2.94-4.68-3-4.63-.18-11.27,2.21-14.42,6.42l5.13,4.01ZM179.12,524.64c4.47-3.27,9.23-5.74,14.47-7.06-6.09-.97-11.98.51-17.63,3.46.18,1.78,1.66,3.24,3.16,3.6ZM199.96,519.33c-1.97-.86-5.86-.66-8.06-.13-6.2,1.49-11.21,5.19-15.28,9.88-.5.57-.37,2.27.08,2.76.45.49,1.9.77,2.63.38.88-.48,1.32-1.81,1.97-2.64,3.6-4.59,9.39-7.68,15.54-7.68,1.68,0,9.05-.66,5.75.74l-1.57.66,2.72,2.67,4.47-.74c-2.85-2.03-5.05-4.48-8.26-5.88ZM212.31,527.37c-5.47-.82-10.72.88-15.61,3.05-8.49,3.77-13.97,11.92-13.92,21.37,13.09,2,31.97,1.52,43.31-5.85.71-.46,2.18-1.96,2.13-2.81-.84-7.86-8.47-14.66-15.92-15.78ZM131.53,548.23c3.66,2.13,7.18,3.93,11.15,5.4,17.36,6.47,36.73,11.95,55.41,11.16,7.72-.33,26.98-2.66,30.5-10.26,1.18-2.55.73-5.79.26-8.52-7.37,6.95-22.92,8.96-32.59,8.81-18.89-.29-40.62-5.98-58.04-13.05-3.67-1.49-6.66-3.43-9.95-5.75-.39,4.66-1.17,9.62,3.27,12.2ZM129.37,534.32c4.01,3.21,8.01,5.07,13.34,7.15,2.58-7.67,1.12-17.66-6.37-21.18l-4.85-2.28c-2.2,5.16-3.21,10.76-2.12,16.31ZM123.44,490.17l.42,9.94c.13,3.02.56,6.34,3.05,8.43,2.64,2.21,6.19,3.32,9.75,4,16.32,3.12,33.18,1.96,49.2-2.63,3.59-1.03,6.83-2.55,9.75-4.53,2.68-1.81,2.7-4.7,3.24-7.5.75-3.91,1.41-7.52.56-11.54-.53-2.5-1.15-5.16-3.81-6-.03,1.36.07,2.77.21,4.17-1.67,1.81-4.46,3.12-7.09,3.99-16.74,5.52-34.42,5.89-51.63,2.28-3.34-.7-6.8-1.7-9.22-3.97.14-1.54.21-3.11.07-4.49-3.07,1.49-4.63,4.32-4.48,7.86ZM128.19,451.4l2.25,35.04c1.92.97,4.24,1.72,6.45,2.24-.14-2.81-.64-4.92.34-7.75.86,2.77.79,5.18.85,8.12,16.11,3.36,40.28,3.02,55.16-4.86l1.47-19.08c2.12-27.47,2.32-54.77.92-82.38-2.82-.47-5.23-1.35-7.3-3.24l7.12,2.07-.11-3.95c-6.17-1.54-10.65-5.69-13.86-10.99l-2.51-4.15c-7.83,4.38-3.78.23-8.37,1.93-6.19,2.29-12.5,3.04-18.86,4.63-2.08.52-4.22,2.15-6.56,2.29-.5,11.56-1.48,23.54-8.98,33.16,8.26-1.91,14.47-7.77,22.54-10.76-7.65,6.95-17.04,10.66-25.8,14.41,7.99,1.99,15.42.28,23.71.47-6.93,3.27-14.57,2.31-21.63,1.78l-5.44-.41-3.95,12.95,2.55,28.45ZM104.72,475.52l22.62-65.77c-2.57.09-3.98,2.6-6.34.7l8.11-3.38c1.87-.78,4.08-1.27,5.43-3.16,1.41-1.97,2.68-3.96,3.96-5.97-8.43-.99-5.62-1.85-9.43-3.08-1.13-.37-1.7-1.39-1.55-2.53.86-6.83,1.34-13.12,1.23-20.09-3.33,1.19-5.6-.88-7.95-.92l-10.13-.19c-.63,10.71-.63,28.72-5.35,38.43-2.1,4.32-6.07,7.13-10.36,8.96-11.94,5.1-29.2,4.33-41.33,2.09-.96-.18-.97,1.59-1.25.8-.05-.14-.31-1.03-.45-1.07l-7.11-2.2-6,34.62-6.02,33.68,5.57,2.7.98-3.81c.09,1.21,0,2.36-.23,4.2,17.67,6.06,40.47,8.97,58.68,3.59l6.94-17.6ZM92.93,516.8c3.67-1.02,6.17-3.71,7.26-7.27,2.14-6.95,7.68-14.01,1.86-20.71-1.21,1.49-1.43,2.91-1.18,4.72-2.49,1.48-5.73,2.47-8.62,3-17.64,3.26-40.67.45-56.64-6.37-.32-.14-1.14.13-1.21,0l-.43-.77c-1.23-.77-3.29-2.2-3.76-3.36.62-1.56,1.05-2.74,1.04-4.1-3.64,1.03-5.94,3.78-6.59,7.38-.85,4.73-1.14,9.54-.61,14.31.35,3.15,2.13,5.55,4.91,6.94,5,2.51,10.11,4.5,15.67,5.82,14.89,3.55,33.48,4.52,48.32.4ZM7.36,572.98c13.07,7.53,32.55,7.58,46.86,4.14,13.22-3.18,24.73-10.72,33.47-20.9,3.32-3.86,3.37-7.9,2.58-13.02-5.38,7.86-18.07,17.28-26.71,20.84-11.04,4.54-22.81,5.61-34.67,4.53-8.61-.78-18.78-3.02-25.09-8.98-.92,5.91-1.82,10.3,3.55,13.4Z"/>
  <path class="cls-7" d="M26.99,144.07c-3.41,12.96,3.57,26.43,16.04,31.27,4.78,1.86,11.56,2.15,16.08-1.98l-.24,2.08c11.78,17.48,29.43,22.84,49.55,27.58-2.63.52-5.22-.13-8.29-.62-.03,2.89.08,5.94-.99,8.7-.17.43-1.06,1.18-.88,1.53.19.34.79,1.15,1.16,1.42,7.94,5.78,18.23,7.85,27.84,5.62,2.3-.53,4.35-1.71,5.98-3.16,1.4-1.26,1.57-3.36.54-4.46l-1.02.95c-1.67,1.57-1.74-7.07-1.63-7.8l-6.37-.02c-.4,0-1.16-.46-1.4-.7s.74-1.01,1.32-1.04c18.18-.72,43.61-6.24,57.6-19.14,6.67-6.15,10.19-14.5,9.55-23.67-.45-6.55-.01-12.71,1.51-19.1l-3.19-.38c-.42-.05-1.25-.74-1.44-1.1-1.14-2.12,5.23-2.91,5.42-10.09l.15-5.52c-9.33-5.09-16.2-13.61-18.37-23.88-1.05,2.9-2.19,5.16-3.76,7.62,1.84,1.94,7.66,6.25,6.26,9.96-2.7-2.65-5-5-8.34-6.81-1.51,1.57-8.28,8.49-10.09,5.75l1.03-6.24-3.84,1.2c-.38.12-1.37,0-1.73-.17-.35-.17-.65-1.26-.53-1.72.66-2.53,3.08-4.64,6.11-4.78-.42-3.5-1.14-6.92-2.43-9.92l-1.4,5.64c-.08.29-.98,1.06-1.21.92-.29-.19-.86-.84-.93-1.35-.46-3.3-1.87-7.23-4.03-10.61-.2,4.81-.44,9.62-2.19,14.44-5.5,15.21-20.86,27.51-37.42,26.06-.54-.05-1.59-.55-1.8-.97-.9-1.79,4.08-3.57,5.88-12.11,1.35-6.39,1.3-12.98-.58-19.33-.11.26-.23.5-.35.75-1.8,3.67-4.25,6.17-7.28,8.54l1.15,2.74c.15.36.04,1.39-.18,1.72-.27.4-1.35.4-1.86.23-16.53-5.67-20.2,3.65-22.76,4.42-3.91,1.18,6.61-17.93,22.17-10.51,2.35-1.94,5.28-4.75,6.74-7.78,1.09-2.26,1.36-4.64-.01-6.88-8.62,4.71-17.6,7.45-27.23,8.26-3.17,6.87-3.57,10.58-7.93,17.26-3.5,5.36-8.16,9.38-14.38,11.42-1.36,2.5-2.73,4.89-3.76,7.72-.79,2.2,2.83,13.24-1.74,14.69-.71.23-2.34-.61-2.7-1.39-2.3-5.04-4.72-10.14-9.21-13.63-2.71-2.1-7.17-2.19-10.29-1.17-4.39,1.43-7.13,5.12-8.3,9.54ZM33.52,146.8c.06-1.04.54-2.86,1.33-3.82,2.14-2.58,7.55-1.5,10.44,1.34,2.43,2.4,5.06,5.81,5.09,9.39.01,1.17-1.22,2.65-.54,3.93l2.45,4.65c.31.58-.11,2.18-.6,1.93-5.03-7.99-2.61-7.17-2.91-10.5-.4-4.63-7.81-12.77-12.27-10.13-.94.56-1.87,1.81-2.99,3.21ZM84.54,149.16c-2.93-5.45-2.33-12.06,1.38-16.64,4.64-5.71,12.72-6.13,17.67-.62,3.83,4.27,4.65,10.63,2.52,15.96-1.8,4.48-5.7,7.41-10.14,7.66-4.63.26-9.04-1.92-11.43-6.36ZM121.25,181.49c-5.98-4.28-8.88-11.7-7.97-18.93.26-2.02,2.67-2.32,4.17-1.68,5.78,2.51,11.53,3.56,17.84,3.29,3.7-.15,7.34-.38,10.66-1.96.74-.35,2.06-.76,2.6-.42,2.82,1.81-1.1,14.9-9.3,20.48-5.57,3.79-12.77,2.97-18-.78ZM140.23,153.31c-1.43-2.83-4.69-2.53-7.58-1.86,2.12-2.06,5.69-2.09,8.1.1.99.91,1.24,2.66.57,3.75-.56.9-1.93,1.82-2.86,1.55.59-1.03,2.11-2.73,1.77-3.54ZM157.55,151.84c-5.74-5.89-5.15-15.5.64-20.93,4.41-4.13,11.08-3.97,15.06.48,4.53,5.05,5.34,12.32,2.02,18.22-1.71,3.03-4.89,5.11-7.82,5.53-3.58.5-7.21-.53-9.9-3.3Z"/>
  <path class="cls-9" d="M128.19,451.4l2.25,35.04c1.92.97,4.24,1.72,6.45,2.24-.14-2.81-.64-4.92.34-7.75.86,2.77.79,5.18.85,8.12,16.11,3.36,40.28,3.02,55.16-4.86l1.47-19.08c2.12-27.47,2.32-54.77.92-82.38-2.82-.47-5.23-1.35-7.3-3.24l7.12,2.07-.11-3.95c-6.17-1.54-10.65-5.69-13.86-10.99l-2.51-4.15c-7.83,4.38-3.78.23-8.37,1.94-6.19,2.29-12.5,3.04-18.86,4.63-2.08.52-4.22,2.15-6.56,2.29-.5,11.56-1.48,23.54-8.98,33.16,8.26-1.91,14.47-7.77,22.54-10.76-7.65,6.95-17.04,10.66-25.8,14.41,7.99,1.99,15.42.28,23.71.47-6.93,3.27-14.57,2.31-21.63,1.78l-5.44-.41-3.95,12.95,2.55,28.45ZM188.29,379.44c-2.78-.75-5.03-2.29-6.32-5,2.39,1.2,4.37,2.89,6.32,5ZM136.21,472.77l-.96-16.71-2.36-28.9-.52-10.52c-.09-1.84-.27-3.47.44-5.18l.43,6.71,1.27,11.24,2.67,33.03c.4,4.99-.16,9.7-.16,14.78-.9-1.2-.7-2.63-.81-4.45Z"/>
  <path class="cls-9" d="M39.1,489.53c17.67,6.06,40.47,8.97,58.68,3.59l6.94-17.6,22.62-65.77c-2.57.09-3.98,2.6-6.34.7l8.11-3.38c1.87-.78,4.08-1.27,5.43-3.17s2.68-3.96,3.96-5.97c-8.43-.99-5.62-1.85-9.43-3.08-1.13-.37-1.7-1.39-1.55-2.53.86-6.83,1.34-13.12,1.23-20.09-3.33,1.19-5.6-.88-7.95-.92l-10.13-.19c-.63,10.71-.63,28.72-5.35,38.43-2.1,4.32-6.07,7.13-10.36,8.96-11.94,5.1-29.2,4.33-41.33,2.09-.96-.18-.97,1.59-1.25.8-.05-.14-.31-1.03-.45-1.07l-7.11-2.2-6,34.62-6.02,33.68,5.57,2.7.98-3.81c.09,1.21,0,2.36-.23,4.2ZM113.6,413.56c1.05-2.38,3.5-2.58,4.76-1.3-1.51.94-3.28,1.68-4.76,1.3ZM51.72,424.28c-.12,5.07-.98,9.53-2.42,14.38-1.22-1.43,1.24-12.68,2.42-14.38ZM42.89,468.34l2.14-12.94c.37-2.22-.07-4.51,1.52-6.69.67,4.61-.42,8.68-1.31,13.06l-3,14.82c-.07.33-.51.87-.72,1.03-2.45,1.79,1.5-10.08,1.37-9.27Z"/>
  <path class="cls-16" d="M114.08,90.6c7.81-4.66,14.79-9.65,21.84-15.03,9.28-7.07,26.16-19.64,37.52-21.59,4.87-.83,10.26.81,14.91,1.64,2.5.45,3.74,2.2,4.53,4.38-3.35-.48-7.43-.55-10.7,2.31,9.92-1.12,19.02,1.27,26.61,7.41,12.74,10.32,14.77,24.68,30.17,27.05-5.47,4.49-12.97,5.06-18.78,1.4-1.08-.68-1.77-1.04-3.11-.52l3.76,3.6c6.44,6.16,7.12,18.92.53,24.69-1.1-5.27-2.23-10.48-6.31-14.31,1.07,7.51.89,14.17-3.68,19.71-4.85,5.88-12.64,9.03-20.38,7.96,3.2-2.81,5.09-5.52,5.94-9.34,1.84-8.29.9-17.11-2.85-24.76-1.13-2.3-2.15-4.84-4.83-5.68,4.78,7.09,6.79,14.91,6.23,23.37-7.21-4.15-12.99-9.84-15.95-17.4-1.07-2.74-2.5-6.35-2.44-9.15.12-5.89.81-11.35-1.43-16.97-1.4-3.53-2.61-8.05-6.76-9.67,4.33,6.56,6.48,12.85,6.28,20.32-.18,6.27-1.34,12.74-5.35,17.5l-6.6-1.44c-.61-5.74-1.82-11.6-5.41-16.46-.4,3.43.29,6.2-1.31,8.72-2.11-8.82-5.2-10.64-8.21-18.01-.02.9-.2,2.47-.07,3.16,2.89,15.19-3.12,30.14-15.93,38.9-5.88,4.02-12.58,6.44-20.04,6.08,8.82-10.51,7.88-26.41,1.82-37.87ZM188.06,74.82c1.34-1.68-5.43-8.28-6.85-8.83l6.85,8.83Z"/>
  <path class="cls-8" d="M99.23,332.6c3.71.13,4.25,7.09,3.04,10.64,3.98,1.2,2.64-5.35,8.6-11.14,1.11-1.08,3.92-2.12,4.92-.56,2.44,3.78,2.1,8.92.51,12.94,2.54,1.61,4.85-.41,7.1-.6l21.51-1.78c1.79-.15,3.86.72,5.45.67,2.73-.09,15.33-2.79,18.06-4.1,2.51-1.21,4.59-1.86,7.28-2.37,4.62-.87,8.92-3.57,12.97-6.09.64-10.44-2.16-28.72-5.52-38.19-1.16-3.26-4.88-5.48-4.61-9.61l3.78,6.01c-1.11-5.21-2.73-9.72-4.79-14.31l-3.24-7.18c-1.18,3.61-4,6.37-7.87,6.58-4.09.22-8.4-2.35-9.73-6.31-.94-2.8.23-5.51,1.05-8.6-3.83-.2-7.51-.07-11.47.09-15.23.64-30.1,1.54-45.55,3.76,1.48,3.01,2.94,5.94,2.83,9.12s-2.72,5.7-4.84,6.93c-3.1,1.79-6.2,1.53-9.41.14-5.71-2.48-5.21-6.49-5.27-11.85l-2.13-.25c-1.37,9.75-2.91,19.28-5.08,29.03-2.28,10.24-7.66,23.07-17.66,28.37l2.03,3.74v-4.17c1.49,1.46.23,3.39.78,5.02.82,2.41,2.39,4.96,3.94,6.99.56.73,2.9.12,3.7-.29,3.33-1.72,6.26.76,8.95,3,4.65-4.86,10.02-1.27,14.34,1.92,1.16-2.99,3.35-7.66,6.33-7.55ZM103.47,265.02c-.59-.68,7.61-2.87,6.84-1.12-2.09,1.52-4.3,1.95-6.84,1.12ZM99.17,310.93c-1.92-7.98-2.27-15.93-2.17-24.21.02-1.28,1.36-3.76,2.61-3.88,3.98-.4,7.43-.27,11.39-.42,16.79-.64,33.27-2.35,49.85-4.64,2.09.01,3.72,1.16,4.13,3.24,1.98,10.1,3.94,25.92-1.25,35.07-3.09,5.44-8.25,8.84-14.16,10.68-16.82,5.22-45.22,5.64-50.39-15.84Z"/>
  <path class="cls-2" d="M139.47,41.51l-6.76-1.63c-2.27,1.37-4.27,2.61-6.81,3.32-2.82.78-5.02-1.27-5.1-3.83l-.17-5.2-4.42-3.61c-.78-.63-1.41-2.56-1.27-3.52.13-.9,1.27-2.44,2.26-2.77l6.64-2.21c.68-1.51,1.55-3.63,2.55-5.07,1.3-1.86,3.77-2.08,5.55-.76,1.74,1.28,3.06,2.99,4.57,4.82l5.98.78c1.37.17,2.86,1.35,3.35,2.47.5,1.13.21,2.95-.56,4.06l-2.66,3.81c1.11,2.74,2.99,6.35.33,8.57-.68.57-2.54.99-3.48.77ZM137.16,43.7c15.42-3.79,34.62-5.19,51.04-4.14-7.78-11.18-21.88-19.54-34.3-24.11-26.42-9.73-58.6-12.28-85.03-1.4-6.26,2.58-10.24,8.2-13.63,13.66-8.74,16.61-7.87,42.87-2.72,60.76,11.67-10.2,23.34-18.61,36.58-26.01,15.38-8.74,31.17-14.61,48.06-18.76Z"/>
  <path class="cls-4" d="M219.01,56.1c-12.53-5.46-26.65-7.02-39.82-3.6,4.25.12,7.38.78,11.31,1.96,1.65.49,3.12,1.98,3.98,3.49.32.56-.39,1.85-.96,2.39,5.1,1.22,10.15,2.83,14.46,6,9.79,7.18,12.13,14.18,20.08,22.91,4.34-1.03,8.09-3.09,10.82-6.55,3.48-4.42,3.63-10.08,1.39-15.27-5.6-12.97-22.19-20.53-35.35-23.17-55.67-11.14-112.31,10.1-153.65,47.85,5.79,2.66,11.47,3.53,17.42,4.46,53.17,8.27,70.43-44.66,118.87-47.94,12.53-.85,24.85,1.67,35.61,7.95,4.46,2.6,9.37,5.64,11.2,10.89-4.93-4.85-9.23-8.7-15.37-11.37ZM226.55,85.85l7.46-4.35c-1.79,2.64-4.78,4.25-7.46,4.35Z"/>
  <path class="cls-4" d="M53.22,302.09c1.42,1,2.28,2.29,3.23,3.61,2.17-1.96,2.81-4.7,3.91-6.98,1.91-3.95,3.06-7.86,4.52-11.84,2.05-5.61,4.25-11.41,5.54-17.03l-.88-.48c-.17-.09-.24-.81-.12-.66,2.96,3.71,1.78-18.07.94-19.45,3.81,1.07,3.11,14.66,2.67,17.45-.81,5.09-2.06,9.22-3.62,14.41l8.04-.85,2.21-14.09c-.59-1.27-1.63-2.83-2.03-4.18-3.22-11.13-8.51-26.61-15.11-35.97l-5.02,2.36c1.82,1.71,3.59,3.32,5.01,5.68l-5.31-4.43c-.96-.8-1.56-.92-1.46-2.45l-3.13-2.08c-3.75,1.85-6.86,4.12-9.94,6.97l1.47,1.35-2.76-.06c-4.55,4.69-8.64,9.69-12.24,15.24l-11.48,17.74c5.07.53,9.4,1.41,13.6,3.05l-.83,1.18c-.17.25-1.14-.14-1.44-.22l-12.01-3.07-6.06,9.65,7.15,1.77-7.6-.66c-1.02,1.6-2.71,4.16-2.81,6-.18,3.38,2.67,5.23,5.28,7.03l1.5-3.21-4.71-1.01c-.31-.07-.82-.26-1.06-.35-.31-.12.74-1.15,1.12-1.15,4.23.03,8.88,1,13.06,2.29,10.86,3.35,20.94,7.79,30.36,14.45ZM36.2,285.46l-4.1-2.3c1.54-.05,3.06.3,4.38.97l2.11,1.08c-.62.84-1.57.71-2.38.25ZM45.04,289.54c-.17-.14.37-.92.59-.87,1.15.22,6.45,3.35,8.07,5,1.89,3.15-10.23-5.46-8.65-4.13Z"/>
  <path class="cls-2" d="M15.88,58.71c-7.86,17.25-9.52,41.04-2.2,59l5.2-4.55c8.65-7.57,17.37-14.21,27.45-19.42,2.02-1.04,3.6-2.43,4.95-4.24-6.59-20.11-7.5-52.9,7.44-69.59l3.71-3.54c-19.68,8.33-37.48,22.43-46.55,42.34Z"/>
  <path class="cls-9" d="M40.46,373.66c-2.05,11.88-5.29,22.63,1.42,33.96-8.97-5.57-4.29-26.13-2.63-34.48l-5.22-4.09c-2.76,10.16-3.98,20.86-2.73,31.37,1.05,8.85,6.14,12.51,14.14,15.2,14.72,4.94,35.49,6.27,49.86-.05,4.44-1.95,7.65-5.51,9.06-10.2,3.29-10.92,3.63-30.84,4.05-42.92l-5.37,3.74c.16,10.56-1,21.15-2.72,31.78-.78,4.8-2.46,9.68-7.03,12.04-6.27,3.24-13.27,4.01-20.36,4.17-9.4.2-18.36-1.05-27.09-4.28-1.23-.45-2.22-.83-2.98-2.42l4.83,1.66c9.08,3.12,18.64,3.98,28.3,3.55-.05-11,.64-21.72,2-32.99-7.59.12-15.06.02-22.58-1.42-5.26-.97-10.05-2.34-14.96-4.63Z"/>
  <path class="cls-16" d="M45.96,130.28c-1.73-1.95,6.24-12.16,7.99-11.55-2.92,4.98-5.93,6.56-7.99,11.55ZM43.36,98.55c-9.14,3.27-4.29,5.76-10.01,11.19l2.08-6.61c-2.92,1.72-5.39,3.35-7.74,5.44l-15.33,13.56c-1.39,1.23-3.11,2.41-4.64,3.65,5.26,2.32,8.7-1.52,10.85-1.88.19-.04.34.62.2.75l-.6.56c-4.31,4.04,5.97,10-1.28,22.5,2.32.37,6.72-.25,6.91-2.39l.81-9.17,1.34,4.8c1.25-3.25,4.04-5.73,6.55-8.12-1.17-2.74-1.89-5.89-1.11-8.86l1.95,8.75c4.05-.78,8.63-1.78,12.06.34,5.59,3.46,8.6,9.42,11.09,15.48,3.65-2.78-.1-8.99.83-13.07.57-2.46,2.12-4.52,3.25-6.71l-8.09,1.21c2.12-3.42,8.58-1.86,15.48-6.44,6.39-4.25,10.16-10.92,12.47-18.09,1.12-.48,1.9-1.29,2.11-2.44l.57-3.16c-11.48.18-22.13-1.23-32.61-5.47-2.36,1.18-4.22,2.3-6.41,3.7l.81,3.71-8.42,8.15c.08-3.34,5.95-6.4,6.88-11.38ZM61.55,114.54c1.84-.32-2.77,5.02-4.09,4.22,1.04-1.57,2.89-4.01,4.09-4.22Z"/>
  <path class="cls-7" d="M57.64,341.05c2.65-.87,4.94-1.39,7.48-1.24l1.04.06c.26.02.17-.78.21-1.05.05-.25-.88-.16-1.36-.17l-10.5-17.78c-2.61-4.42-5.08-8.56-7.94-12.77-1.78-2.61-3.6-4.4-7.41-4.83,2.86-1.27,5-.03,6.9,2.55l2.23-4.52c-9.98-5.8-20.28-10.27-31.6-12.76-4.41,10.02-8.16,18.4-3.42,28.58,3.66,7.86,8.5,14.55,14.27,21.09,4.82,5.47,10.4,11.19,15.8,15.56.43.35,1.62.25,1.82-.1s.04-1.16-.19-1.76c-1.26-3.29-.88-7.58,1.72-10.16,2.86-2.84,7.44-2.81,10.94-.71Z"/>
  <path class="cls-9" d="M100.19,509.53c2.14-6.95,7.68-14.01,1.86-20.71-1.21,1.49-1.43,2.91-1.18,4.72-2.49,1.48-5.73,2.47-8.62,3-17.64,3.26-40.67.45-56.64-6.37-.32-.14-1.14.13-1.21,0l-.43-.77c-1.23-.77-3.29-2.2-3.76-3.36.62-1.56,1.05-2.74,1.04-4.1-3.64,1.03-5.94,3.78-6.59,7.38-.85,4.73-1.14,9.54-.61,14.31.35,3.15,2.13,5.55,4.91,6.94,5,2.51,10.11,4.5,15.67,5.82,14.89,3.55,33.48,4.52,48.32.4,3.67-1.02,6.17-3.71,7.26-7.27ZM30.24,506.04c-1.73,1.33-.65-11.96-.19-11.51.44,1.79-.22,3.39-.13,5.12l.32,6.39Z"/>
  <path class="cls-9" d="M123.44,490.17l.42,9.94c.13,3.02.56,6.34,3.05,8.43,2.64,2.21,6.19,3.32,9.75,4,16.32,3.12,33.18,1.96,49.2-2.63,3.59-1.03,6.83-2.55,9.75-4.53,2.68-1.81,2.7-4.7,3.24-7.5.75-3.91,1.41-7.52.56-11.54-.53-2.5-1.15-5.16-3.81-6-.03,1.36.07,2.77.21,4.17-1.67,1.81-4.46,3.12-7.09,3.99-16.74,5.52-34.42,5.89-51.63,2.28-3.34-.7-6.8-1.7-9.22-3.97.14-1.54.21-3.11.07-4.49-3.07,1.49-4.63,4.32-4.48,7.86ZM133.76,506.92c-.93-3.41-1.55-6.2-1.1-9.17l1.85,8.67-.09.85c-.01.13-.44-.17-.66-.35Z"/>
  <path class="cls-4" d="M122.22,236.91l-20.86,1.47c-.91.06-1.9.13-2.74.28l4.75,14.59,9.47-.67,39.44-4.04c-.22-5.16-1.2-10.46-2.63-15.32l-4.32.26,4.18-.99c-1.28-5.49-2.9-10.55-5.87-15.58-.74,7.42-7.56,11.44-13.72,12.76-11.63,2.5-23.86.51-33.85-5.84-1.32-.84-2.55-1.65-3.87-.02l5.98,13.49,21.05-1.83c2.84-.25,5.39-.24,8.3.63-1.6.31-3.29.65-5.31.8Z"/>
  <path class="cls-13" d="M4.48,557.06c5.22,7,18.48,9.09,26.3,9.65,10.23.74,20.25-.25,29.92-3.59-.17-20.48-29.39-27.07-45.53-21.48-6.33,2.2-9.97,9.36-10.68,15.41Z"/>
  <path class="cls-9" d="M82.48,257.89l1.87,6.3c4.79-2.51,8.9-4.08,14.22-3.82-.05-2.35-.71-5.03-2.18-7.09-2.17-.32-4.74.2-6.81.59l-5.03.94c-.18.03-.69.28-.69.14l-.05-.76c4.21-1.04,8.21-1.89,12.57-2.36-.14-1.79-2.23-3-1.3-5.31,2.13,3.22,3.35,4.32,1.64,6.15-.21.23,1.2.74,1.33,1.04.67,1.62,1.09,4.78,1.33,6.83,2.04-.21,2.89-2.66,2.4-4.54-2.58-9.9-6.01-19.39-10.3-28.69-1.06-2.29-8.49-17.54-12.23-14.4l.85,1.88-1.85-1.67c-4.83,1.12-9.72,2.71-14.58,4.9,2.64,2.86,5.03,5.4,6.34,8.9l-6.51-8.28c-.7-.89-3.2.48-3.49,1.38,9.53,8.68,16.02,28.64,19.49,40.94.63,2.22,2.22,4.23,4.65,3.44-1.48-3.63-2.78-6.92-3.37-11.01l1.49,3.48,1.85-1.32-1.63,2.3Z"/>
  <path class="cls-13" d="M198.09,564.8c7.72-.33,26.98-2.66,30.5-10.26,1.18-2.55.73-5.79.26-8.52-7.37,6.95-22.92,8.96-32.59,8.81-18.89-.29-40.62-5.98-58.04-13.05-3.67-1.49-6.66-3.43-9.95-5.75-.39,4.66-1.17,9.62,3.27,12.2,3.66,2.13,7.18,3.93,11.15,5.4,17.36,6.47,36.73,11.95,55.41,11.16Z"/>
  <path class="cls-13" d="M3.81,559.59c-.92,5.91-1.82,10.3,3.55,13.4,13.07,7.53,32.55,7.58,46.86,4.14,13.22-3.18,24.73-10.72,33.47-20.9,3.32-3.86,3.37-7.9,2.58-13.02-5.38,7.86-18.07,17.28-26.71,20.84-11.04,4.54-22.81,5.61-34.67,4.53-8.61-.78-18.78-3.02-25.09-8.98Z"/>
  <path class="cls-7" d="M191.19,321.67c.23,2.51-.78,5.43.03,7.73l1.83,5.21c2.32,6.6.68,17.13,2.4,22.06,8.05-14.83,14.13-37.21,13.4-53.72-.27-6.15-2.32-11.87-4.81-17.21-5.42,4.65-10.69,7.47-17.04,10.01l1.52,6.61,7.09-1.27c.52-.09,1.62,1,1.47,1.11-2.97.38-5.56.94-8.17,1.92.94,6.15,1.72,11.56,2.28,17.56Z"/>
  <path class="cls-2" d="M140.31,521.25c6.16,5.15,5.72,13.56,3.92,20.78,11.94,4.28,23.87,7.66,36.65,9.62.2-4.06,1.06-7.89,2.64-11.7-3.78-1.21-7.83-2.5-10.98-5.11-5.8-4.82-9.38-11.21-11.96-18.23-9.89.77-19.16-.38-28.47-2.57l-.4,3.16,3.36,1.01,1.69.08,3.55,2.97Z"/>
  <path class="cls-13" d="M182.79,551.8c13.09,2,31.97,1.52,43.31-5.85.71-.46,2.18-1.96,2.13-2.81-.84-7.86-8.47-14.66-15.92-15.78-5.47-.82-10.72.88-15.61,3.05-8.49,3.77-13.97,11.92-13.92,21.37Z"/>
  <path class="cls-4" d="M182.45,279.01l8.67-5.67c4.53-2.96,8.24-6.68,11.04-11.24l-6.8-9.75c-.18-.26-.95-1.01-1.16-.77l-1.07,1.24.84-2.39c-2.99-4.41-6.13-8.81-9.68-12.75-.59,1.27-.78,2.26-2.17,2.1l1.61-2.97c-4.29-5.2-9.37-9.83-15.59-13.28l2.86,6.47c.09.2,1,.32,1.2.21.25-.14-.47,1.29-.38,1.63l3.69,14.51,2.79-2.31c.12-.1,1.02.18.93.31-.14.19-.54.73-.73.89l-2.78,2.22.45,8.69c.33,3.23,2.04,6.24,2.78,9.15l3.49,13.75Z"/>
  <path class="cls-9" d="M161.76,255.87c2.46-.43,9.61-.47,10.9,2.52,2.99-1.76.32-13.12-.41-16.37-1.59-7.01-3.6-13.76-7.06-20-1.04-1.88-2.35-2.79-4.18-3.59-5.57-2.44-10.94-4.69-17.14-6.11,6.51,11.61,10.5,26.18,10.65,39.17.08,1.07.35,3.31,1.07,3.97,1.75,1.12,4.16.77,6.17.42ZM165.63,245.55c1.69-.23,3.53.18,4.79,1.29.9.79,1.32,3.02,1.4,4.51-4.36-1.96-7.98-2.03-12.12-2.82l-2.77-.53c-.48-.87,4.67-4.7,6.36-2.73l-3.46,1.48c-.73.41-1.09,1.11-.03.92l6.06.76c1.32.16,2.68.62,4.13.91-1.44-1.45-2.78-2.59-4.37-3.8Z"/>
  <path class="cls-9" d="M77.52,412.36c2.41.17,4.3-.15,6.65-.57,10.86-1.95,14.37-5.71,15.46-16.71l1.96-19.77c-7.04,2.64-14.48,4.1-22.05,4.17l-2.02,32.89Z"/>
  <path class="cls-4" d="M121.2,366.82c.18,1.88,2,3.33,3.62,3.33,7.54-.04,14.79-.51,22.21-1.49,2.23-.29,3.77-2.12,3.8-4.33.07-5.45.02-10.74-.31-16.1-.17-2.77-2.52-4.23-5.11-3.93-6.98.8-13.7,1.27-20.73,1.54-1.84.07-3.85,1.42-3.94,3.41-.28,5.85-.11,11.48.47,17.58ZM131.33,356.7c.85-2.77,3.33-4.13,5.42-3.7,2.3.47,4.53,2.22,4.17,4.9s-3.25,4.34-5.58,3.93c-2.2-.39-4.77-2.68-4.02-5.13ZM127.81,359.35c-1.04.31-2.97-1.07-2.38-2.04,1.1-1.8,4.01-1.53,5.5.15-.75.88-1.94,1.53-3.12,1.89Z"/>
  <path class="cls-3" d="M53.27,347.93c-1.93,5-2.88,13.49,3.29,16.22,2.8,1.24,6.09,1.24,9,.69l.63-2.34c1.08,3.1,5.55.88,7.78-.37,3.43-1.93,5.03-5.63,3.66-9.56-.68-1.95-2.01-3.81-3.28-5.81,1.13-.49,1.78.81,2.23,2.21,2.97-.77,4.07-4.54,2.3-7.34-.99-1.56-2.77-3.13-4.4-4.07-2.88-1.67-6.25-.17-7.26,2.79.78.8,1.91,1.37,3.02,1.87.35.02-.79.64-1.21.45-4.41-1.91-11.05-1.21-14.88,3.44-.61-1.69,1.09-2.14,1.81-3.48-1.81-1.4-4.22-1.58-6.37-.62-1.97.88-3.15,2.98-3.51,5.43-.43,2.85,1.22,5.91,4.46,5.86,2.59-2.81-2.42-5.94,2.73-8.05l-1.89,3.08,1.9-.39ZM67.68,352.72c-.56-.25-1.23-1.69-1.1-2.27s.84-1.83,1.47-2c1.06-.29,2.5,1.38,2.32,2.32-.21,1.1-.93,2.73-2.69,1.95ZM60.07,355.23c-1.39,1.07-2.77-.29-3.18-1.4-.34-.95.54-2.92,1.73-2.79,1.83.2,3.01,2.99,1.44,4.19ZM62.09,358.44c-.02-.97,1.96-2.18,3.1-2.25.81-.05,2.05,1.16,2.12,1.94.06.61-.54,1.64-1.21,2.2-1.12.95-3.96.18-4.01-1.89Z"/>
  <path class="cls-2" d="M57.96,550.09c2.9,3.53,4.44,7.63,4.64,12.32,7.38-3.14,13.57-7.92,19.62-13.23-2.53-8.5-1.5-17.41,4.16-24.18.48-.58,1.84-.96,1.93-1.55.12-.71-.04-2.34-.2-2.89-4.79.71-8.94,1.17-13.87,1.36-1.35,7.04-3.79,13.85-7.42,20.22-2.37,3.24-5.21,5.69-8.86,7.95Z"/>
  <path class="cls-4" d="M140.79,212.97c-1.15-1.97-4.21-2.33-7.05-2.6,2.54,1.17,3,4.12,1.35,6.46-6.89,9.72-34.32,5.55-39.82-5.48l2.05-1.41c-2.69-.44-5.44-.3-7.68,1.56-.75.62-.23,2.91.31,3.75,9.29,14.65,37.42,17.66,48.4,8.49,2.89-2.41,4.62-7.03,2.43-10.76Z"/>
  <path class="cls-3" d="M171.88,361.81c.88-5.79.45-11.75-.92-17.21-1.1.31-13.69,4.22-12.96,2.55l12.81-3.24c-.38-1.24-.76-2.17-1.24-2.86l-18.04,3.95.63,2.4c.81,6.42.8,12.46.27,18.91,6.74-1.1,12.61-2.61,19.44-4.5ZM158.13,361.85l9.51-2.82c1.25-.37,2.3-.8,3.44-.49-2.09,1.16-10.89,3.74-12.95,3.31Z"/>
  <path class="cls-4" d="M189.25,285.73l-4.41,2.2,1.61,5.57c7.86-3.24,15.06-7.75,20.56-14.2,4.9-5.74.29-10.21-3.55-15.96-4.75,7.05-12.88,13.63-20.86,16.82l2.26,7.09c2.39-1.22,4.05-2.03,5.92-3.29l11.09-7.5c-3.06,4.54-8.05,7.01-12.62,9.29Z"/>
  <path class="cls-4" d="M61.05,303.75c-1.84,2.88-.36,12.7-.17,16.52,5.13-3.97,7.76-9.15,10.33-14.55,1.94-4.07,2.94-8.43,3.88-12.86.83-3.89,1.67-7.41,2.12-11.78l-8.05.88-3.43,9.46-4.67,12.33Z"/>
  <path class="cls-7" d="M196.4,141.55c-3.91,10.27-1.49,17.47-2.49,28.05,11.55-4.42,16.6-20.09,12.72-30.93-3.38,1.18-6.64,2.16-10.23,2.88Z"/>
  <path class="cls-9" d="M69.45,378.18l8.7.07c.14-2.61.35-4.4.98-6.42-11.27.02-34.11-.8-42.44-10.35-1.16,1.74-1.97,3.95-2.27,6.48l5.09,3.77c.74-1.95.76-3.21,2.26-4.81l-1,5.43c8.92,3.86,18.59,5.75,28.68,5.83Z"/>
  <path class="cls-9" d="M129.03,392.7c1.61,1.64,7.61,4.4,9.57,3.85.38-.1.79-.85.98-1.38,2.68-7.67,3.52-15.76,3.5-23.74l-12.84.99c.03,6.64-.24,13.05-1.21,20.28Z"/>
  <path class="cls-1" d="M89.4,364.82c.47.48,1.75,1.78,2.36,2.22,1.25.91,4.99-.04,5.72-1.42,1.07-2.01,1.79-4.36,2.18-6.52s-1.48-4.63-3.33-5.26c-1.34-.46-3.86.85-3.77,1.96l.67,2.58c-1.07.12-1.34-.85-1.75-1.67l-.57-1.14c-.16-.32-1.17.17-1.49.35l-.69.37c-.2.11-.54-.45-.67-.64s.62-.46,1.19-.71c.37-.16-.36-1.23-.76-1.34s-1.17.2-1.73.44c-1.95-1.48-4.8-2.74-7.23-1.67.92,6.89-1.01,8.49-6.63,12.14,5.32,4.54,4.48,6,12.34,3.9,2.16-1.88,1.56-5.21,1.18-7.8,1.88.78,1.16,3.66,1.62,3.66h.72c.18.02.23-.65.2-.85l-.43-3.05,2.55,1.34c.4.48-.71,1.9-1.65,3.09Z"/>
  <path class="cls-4" d="M103.74,254.42l-.17,5.49c16.44-2.15,33.05-3.25,49.65-3.62l-.98-6.47c-13.14,1.86-26.38,3.35-39.83,4.11l-8.66.49Z"/>
  <path class="cls-2" d="M142.71,541.47c2.58-7.67,1.12-17.66-6.37-21.18l-4.85-2.28c-2.2,5.16-3.21,10.76-2.12,16.31,4.01,3.21,8.01,5.07,13.34,7.15Z"/>
  <path class="cls-3" d="M179.39,341.66l1.87,13.14c1.82-.79,2.9-1.8,4.65-1.23l-4.71,1.9-.23,2.96c4.19-1.62,7.38-3.17,11.09-5.51.51-6.92-.26-13.84-2.26-20.87-3.97,2.6-7.74,4.54-12.09,6.19l1.41,2.55,4.3-1.9c2.08-.92,3.76-2.36,6.36-3.07.06,1.46-8.46,5.61-10.38,5.83Z"/>
  <path class="cls-13" d="M56.7,533.78c2.7,2.08,6.31,4.65,4.23,7.79-1.68,2.54-5.26-.62-6.64-2.01l-3.17,4.25,5.9,4.98c8.85-3.86,14.05-17.39,15.75-26.79l-9.06-.29-1.21,2.33,4.59,3.59c.82.64,1.06,2.71.68,3.75s-2.14,2.16-3.54,1.79c-2-.53-3.14-1.89-4.65-3.47l-2.89,4.08Z"/>
  <path class="cls-12" d="M94.19,345.94c3.49,2.63-2.42,7.25,2.76,5.96l2.43,1.74,2.56-5.02c.27-.53-.16-1.67-.73-2.07-.72,1.65-1.38,3.02-2.36,4.34.23-1.65.62-3.22.41-4.14-.76-3.24-4.94-2.39-6.33-3.65-2.1-1.91-3.09-3.5-5.92-4.16-2.38-.55-5.66-1.94-7.28,1.14,1.64,2.12,2.36,4.99.97,7.59l-1.96,3.66,2.16-1.54c4.17,1.78,5.12.43,9.97,3.93,1.26.91,2.66-1.3,2.79-2.56l.51-5.21Z"/>
  <path class="cls-9" d="M180.32,361.41c2.74,5.67,8.52,12.82,14.76,14.17l-2.55-20.22-7.72,3.93-4.49,2.12Z"/>
  <path class="cls-13" d="M175.1,531.5c-.56-2.62,1.14-3.7,3.01-5.28l-2.86-3.91-2.44,2.48c-.5.51-2.1.9-2.79.84-.78-.06-2.14-1.13-2.35-1.92-.59-2.19.75-3.7,2.44-5.1-.14-.72-.85-1.99-1.41-2.68l-6.61.57c2.74,6.67,6.09,12.72,11.48,17.23,3.05,2.56,6.94,3.88,10.56,5.32l3.11-4.08-4.9-4.02c-.82,1.32-1.86,2.53-2.92,2.72-1.63.3-3.92-.33-4.31-2.18Z"/>
  <path class="cls-4" d="M100.39,364.85c2.16-.55,3.21-1.35,4.87-2.44,1.38-.91,2.32-2.26,3.06-3.99l6.37-14.99-7.33-2.16-6.43,13.61c2.15,4.69.28,4.6-.54,9.98ZM107.25,355.28l3.72-10.21,1.13.03c-.43,0-5.77,15.11-6.94,16.26.03-2.22,1.35-4.04,2.09-6.07Z"/>
  <path class="cls-9" d="M79.94,371.7l-.21,6.56c7.64-.6,14.8-1.5,21.98-4.48l-.02-6.77-5.12,1.77c-5.3,1.83-10.57,2.25-16.62,2.92Z"/>
  <path class="cls-2" d="M27.41,537.37c8.05.54,15.41,1.75,22.5,5.86l3.37-4.53c-6.51-4.89-14.03-6.72-21.99-6.04-1.5,1.33-2.53,2.39-3.89,4.71Z"/>
  <path class="cls-9" d="M87.57,275c2.18,2.37,5.27,3.27,8.07,2.6,2.34-.56,5.17-2.45,5.79-5.34s-.46-7.21-3.32-8.77-6.89-.8-9.41,1.04c-3.2,2.33-3.82,7.56-1.12,10.48ZM89.97,269.76c.57-2.15,2.15-3.41,3.83-3.48,1.82-.08,3.79.8,4.26,2.55.63,2.31-.1,3.88-2.04,4.9-1.43.76-2.96.9-4.33.06-1.22-.75-2.19-2.27-1.72-4.03Z"/>
  <path class="cls-3" d="M116.56,365.45l-5.63.51-.06,2.88,8.7.08-.51-6.93c-.26-3.57-.27-6.82-.3-10.52l-5-.06-3.65,8.86.81,4.79,5.64.39Z"/>
  <path class="cls-13" d="M30.79,523.66c11.29-2.72,23.97-.32,32.48,7.64.66.62,2.04.82,2.58.4,4.2-3.27-9.26-9.11-11.66-10.08-6.43-2.58-13.57-2.79-20.33-1.48-1.7.33-3.33,1.65-3.07,3.52Z"/>
  <path class="cls-16" d="M173.22,363.09c1.92.11,6.05-.51,6.55-2.42,1.79-3.41-.06-20.59-4.3-22.46-1.72-.56-4.27.54-5.88,1.15,4.31,5.62,4.67,16.62,3.62,23.73Z"/>
  <path class="cls-13" d="M52.38,536.38c2.79,1.9,5.18,5.77,7.21,4.27.54-.4.7-2.05.21-2.61-4.57-5.17-10.54-8.03-17.23-9.41-3.35-.69-17.93-2.28-15.98,3.77l3.62-.72c7.59-1.52,15.59.22,22.16,4.71Z"/>
  <path class="cls-13" d="M175.67,519.67c5.34-3.4,14.65-4.86,20.36-3.98l-.92,1.31c-.16.22.5.9.81.95l4.71.72c-1.51-3.75-1.56-.31-4.84-4.83l-2.84-3.92-2.82,1.26c.67,1.02.9,1.34,1.12,2.34l-2.7-1.78c-4.05.98-8.57,1.96-12.46,3.91-1.85.93-9.24,5.45-7.2,8.02.71.89,2.57.89,3.23-.07,1-1.45,1.98-2.93,3.56-3.94Z"/>
  <path class="cls-9" d="M158.38,265.84c.56,3.06,3.05,4.69,5.65,5.49,3.35,1.03,7.5-1.05,8.22-4.77.38-1.99-.1-5.07-1.44-6.64-2.29-2.66-6.99-3.51-9.9-1.58-2.15,1.43-3,4.89-2.53,7.5ZM166.76,260.84c2.07.81,2.96,3.1,2.25,4.89-.8,2.02-3.03,2.75-4.89,2.04s-2.79-3.06-2.08-4.93,2.76-2.76,4.73-1.99Z"/>
  <path class="cls-2" d="M83.54,547.97c2.3-2.36,5.21-4.87,6.09-8.05,1.35-4.92.38-10.16-1.1-15-5.96,5.07-7.12,15.63-4.98,23.04Z"/>
  <path class="cls-13" d="M196.84,521.89c1.68,0,9.05-.66,5.75.74l-1.57.66,2.72,2.67,4.47-.74c-2.85-2.03-5.05-4.48-8.26-5.88-1.97-.86-5.86-.66-8.06-.13-6.2,1.49-11.21,5.19-15.28,9.88-.5.57-.37,2.27.08,2.76s1.9.77,2.63.38c.88-.48,1.32-1.81,1.97-2.64,3.6-4.59,9.39-7.68,15.54-7.68Z"/>
  <path class="cls-13" d="M25.44,529.91c3.05-3.31,6.49-.92,8.21-5.44-1.22.39-2.25.73-2.88.44-.7-.32-1.29-1.98-1.06-2.89.84-3.33,6.6-1.51,6.15-5.58l-3.95-1.78-2.43,5.29c-2.29,4.99-9.06,14.56-13.13,19.1l9.18-1.55,2.7-3.77c-1.28-.16-2.49-.31-2.97-.78-.52-.52-.48-2.32.17-3.04Z"/>
  <path class="cls-2" d="M183.09,529.77l5.13,4.01c4.04-3.68,8.66-5.64,13.98-7.43-1.12-.95-3.06-2.94-4.68-3-4.63-.18-11.27,2.21-14.42,6.42Z"/>
  <path class="cls-2" d="M34.11,526.79c10.55.6,12.1,1.15,21.44,5.85,1.04-1.03,1.97-2.21,2.71-3.52-4.96-3.59-16.56-5.77-21.97-5.06-.9.12-1.97,2.16-2.18,2.73Z"/>
  <path class="cls-1" d="M47.15,365.46l7.51,2.12c.49.14,1.71-.24,1.76-.7.21-2.1-6.79-2.68-6.16-11.18-.86-.61-2.25-1.21-3.45-1.56-2.17,2.17-3.43,4.94-2.9,8.17.21,1.26,1.82,2.75,3.25,3.16Z"/>
  <path class="cls-4" d="M92.73,5.32c-3.33-5.16-23.47-1.56-21.36,5.34,7.35-2.34,14.06-3.92,21.36-5.34Z"/>
  <path class="cls-2" d="M175.96,521.04c.18,1.78,1.66,3.24,3.16,3.6,4.47-3.27,9.23-5.74,14.47-7.06-6.09-.97-11.98.51-17.63,3.46Z"/>
  <path class="cls-14" d="M108.1,339.84l4.5,1.69c.65.24,2.64-.04,2.71-.78.16-1.77.66-6.92-.7-7.86-2-1.39-5.76,4.21-6.5,6.95Z"/>
  <path class="cls-3" d="M64.96,366.53c-3.35.82-5.94-1.24-7.39.45-1.79,2.09,13.53,2.23,14.98,2.42.66-.66.53-3.11-.31-3.52-2.37-1.15-4.79.03-7.28.64Z"/>
  <path class="cls-13" d="M34.22,354.52s-.09-.07-.13-.11c.77-.81,1.7-1.48,2.75-1.95,1.02-.45,2.69,1.17,3.01,2.29l-4.99,6c.28-.42.51-.87.65-1.37.06-.44.12-.89.18-1.33"/>
  <path class="cls-6" d="M94.22,341.59l3.32,1.42c.54-1.57,4.49-7.29,2.07-8.43-2.03-.96-4.44,4.79-5.39,7.01Z"/>
  <path class="cls-17" d="M56.39,315.71c-.4,2.48.23,4.92,2.19,6.85.51-1.55.32-3.19.17-5.01l-.83-10.08c-1.68,2.83-1.09,5.47-1.53,8.24Z"/>
  <path class="cls-16" d="M163.27,107.96l-.81,7.05c2.55-1.59,3.97-2.92,6.04-5.61l-5.23-1.44Z"/>
  <polygon class="cls-4" points="57.23 226.8 61.74 224.91 59.23 222.12 53.83 224.31 57.23 226.8"/>
  <path class="cls-4" d="M91.24,221.98c.24.4,1.2.38,1.8.25l-3.63-4.71c-1.2-1.56-1.55-3.18-1.94-5.38l-2.45.64c2.03,2.72,4.48,6.33,6.22,9.19Z"/>
  <polyline class="cls-13" points="49.49 308.06 53.87 314.57 54.59 308.58"/>
  <path class="cls-3" d="M114.31,350.37l4.58-.04.55-3.01h-3.96c-.45.45-.82,1.74-1.17,3.05Z"/>
  <path class="cls-18" d="M177.29,269.51c-.44-2.88-1.33-5.98-2.26-9.25l-.23-.8c-.06-.21-.43-.68-.52-.48-1.06,2.1,1.1,7.23,3.01,10.53Z"/>
  <path class="cls-17" d="M48.66,304.99c2.32.8,4.15,1.18,6.97.98l-5.31-3.3-1.66,2.32Z"/>
  <path class="cls-16" d="M60.38,185.81c2.27-2.05-1.72-6.31-3.6-7.61l3.6,7.61Z"/>
  <path class="cls-15" d="M98.8,342.1c-.35.68-.25,1.78.37,2.7,1.51-1.99,1.87-4.15,1.65-6.71l-2.03,4.01Z"/>
  <path class="cls-6" d="M87.26,368.2c1.27.05,2.37-.18,3.48-.81-.68-.84-1.46-1.66-2.02-1.65s-1.07,1.11-1.46,2.46Z"/>
  <polygon class="cls-2" points="56.42 521.25 60.75 523.43 61.94 521.61 56.42 521.25"/>
  <path class="cls-2" d="M170.56,515.62c-.36.03-.12,1.52.19,1.59.39.09.99-.06,1.44-.31l2.93-1.68-4.56.4Z"/>
  <path d="M84.54,149.16c2.39,4.44,6.8,6.62,11.43,6.36s8.35-3.18,10.14-7.66c2.13-5.33,1.31-11.69-2.52-15.95-4.95-5.52-13.03-5.09-17.66.62-3.71,4.57-4.32,11.19-1.39,16.64ZM93.42,139.51c-2.5-1.25-3.06-4.04-1.83-5.93s3.86-2.6,5.73-1.01c1.58,1.34,2.06,3.54,1.09,5.21-.92,1.58-2.98,2.74-4.99,1.73Z"/>
  <path d="M157.55,151.84c2.7,2.77,6.32,3.8,9.9,3.3,2.94-.41,6.11-2.49,7.82-5.52,3.32-5.9,2.51-13.17-2.02-18.23-3.98-4.44-10.65-4.6-15.05-.47-5.79,5.43-6.38,15.04-.65,20.93ZM164.06,139.73c-2.65-.4-3.78-3.03-3.18-5.13.59-2.09,2.89-3.68,5.15-2.81,2.03.78,2.84,3.01,2.3,4.79s-2,3.49-4.27,3.14Z"/>
  <path d="M139.25,182.27c8.2-5.58,12.12-18.67,9.3-20.48-.54-.34-1.86.07-2.6.42-3.32,1.58-6.96,1.81-10.66,1.96-6.31.27-12.07-.78-17.84-3.29-1.5-.65-3.91-.35-4.16,1.67-.91,7.23,1.99,14.66,7.97,18.94,5.23,3.74,12.43,4.56,18,.78ZM140.43,178.02c-3.89,5.41-11.87,5.67-16.93,2.21-8.58-5.86-10.05-18.05-5.79-16.6l5.02,1.71c4.52,1.54,20.21,6.1,17.7,12.67Z"/>
  <path d="M51.7,164.22c.49.24.91-1.35.6-1.93l-2.46-4.66c-.68-1.28.55-2.76.54-3.92-.03-3.58-2.66-7-5.09-9.4-2.88-2.84-8.3-3.92-10.43-1.33-.79.96-1.27,2.78-1.33,3.82,1.11-1.4,2.05-2.65,2.99-3.2,4.46-2.65,11.87,5.5,12.27,10.13.29,3.33-2.12,2.51,2.91,10.5Z"/>
  <path d="M140.24,153.31c.34.81-1.18,2.51-1.78,3.54.93.27,2.3-.65,2.86-1.56.67-1.08.42-2.84-.57-3.74-2.41-2.19-5.98-2.17-8.1-.11,2.89-.66,6.15-.97,7.58,1.86Z"/>
  <path d="M136.21,472.77c.1,1.82-.09,3.25.81,4.45,0-5.07.56-9.79.16-14.78l-2.67-33.03-1.27-11.24-.43-6.71c-.71,1.71-.53,3.34-.44,5.18l.52,10.52,2.36,28.9.96,16.71Z"/>
  <path d="M188.29,379.44c-1.95-2.11-3.93-3.81-6.32-5,1.29,2.71,3.53,4.25,6.32,5Z"/>
  <path d="M42.89,468.34c.13-.81-3.82,11.06-1.37,9.27.21-.16.65-.7.72-1.03l3-14.82c.89-4.38,1.98-8.44,1.31-13.06-1.59,2.18-1.15,4.48-1.52,6.69l-2.14,12.94Z"/>
  <path d="M51.72,424.28c-1.17,1.7-3.63,12.96-2.42,14.38,1.44-4.86,2.3-9.32,2.42-14.38Z"/>
  <path d="M113.6,413.56c1.48.38,3.26-.36,4.76-1.3-1.26-1.28-3.72-1.07-4.76,1.3Z"/>
  <path d="M188.05,74.82c1.34-1.68-5.43-8.28-6.85-8.83l6.85,8.83Z"/>
  <path d="M99.17,310.93c5.18,21.48,33.57,21.06,50.39,15.84,5.92-1.84,11.08-5.24,14.16-10.68,5.19-9.15,3.24-24.97,1.25-35.07-.41-2.09-2.05-3.23-4.13-3.24-16.58,2.29-33.06,4-49.85,4.64-3.97.15-7.41.02-11.39.42-1.25.13-2.59,2.6-2.61,3.88-.11,8.28.24,16.22,2.17,24.21ZM112.99,324.77c-13.61-5.65-13.45-20.13-13.97-32.84l12.74-.54c-2.55-2.11-5.23-.13-7.32-1.15.25-1.54.17-3.1-.37-4.49l-.58,4.81-4.45.27-.05-4.59c0-.77,1.51-1.84,2.41-1.85,19.74-.09,39.04-1.62,58.52-4.64,1.44-.22,3.19.38,3.38,1.87l.52,4.07-7.49.85c-3.53.4-6.83.89-10.15,1.92,4.78.45,8.73-.59,13.57-1.2l1.13,5.54c.06-1.89-.03-3.73-.19-5.71l3.29-.58c1.94,14.39,3.93,30.49-11.87,37.24-11.18,4.77-27.65,5.79-39.12,1.03Z"/>
  <path d="M103.47,265.02c2.54.82,4.75.4,6.84-1.12.78-1.75-7.43.45-6.84,1.12Z"/>
  <path d="M125.91,43.19c2.54-.7,4.54-1.95,6.8-3.31l6.77,1.63c.94.23,2.79-.2,3.48-.77,2.66-2.22.78-5.82-.33-8.57l2.66-3.81c.78-1.11,1.06-2.94.57-4.07s-1.98-2.29-3.35-2.47l-5.98-.78c-1.51-1.83-2.83-3.53-4.56-4.81s-4.26-1.1-5.55.76c-1,1.44-1.88,3.56-2.56,5.06l-6.63,2.22c-.99.33-2.13,1.87-2.26,2.77-.14.96.49,2.89,1.27,3.52l4.42,3.61.17,5.19c.08,2.57,2.28,4.61,5.1,3.83ZM125.94,41.76c-.58.29-2.29.15-2.77-.28s-1.07-1.59-1.09-2.29l-.21-5.91-4.87-4.22c-.42-.36-.58-1.85-.3-2.29.23-.37.91-1.2,1.33-1.34l6.75-2.32c.81-1.65,1.7-3.58,2.66-5.15.86-1.42,3.09-1.55,4.23-.33l4.35,4.62c1.64.57,8.57.53,8.65,3.08.02.48-.27,1.57-.57,1.99l-3,4.35,1.73,4.99c.2.59-.09,1.97-.45,2.47s-1.83,1.08-2.46.93l-7.08-1.67-6.9,3.37Z"/>
  <path d="M226.55,85.85c2.68-.1,5.67-1.71,7.46-4.35l-7.46,4.35Z"/>
  <path d="M45.04,289.54c-1.58-1.34,10.54,7.28,8.65,4.13-1.62-1.65-6.92-4.78-8.07-5-.21-.04-.75.73-.59.87Z"/>
  <path d="M36.2,285.46c.81.46,1.77.59,2.38-.25l-2.11-1.08c-1.31-.67-2.83-1.02-4.38-.97l4.1,2.3Z"/>
  <path d="M45.97,130.28c2.05-4.98,5.07-6.57,7.99-11.54-1.75-.61-9.72,9.6-7.99,11.54Z"/>
  <path d="M57.47,118.76c1.32.8,5.93-4.54,4.09-4.22-1.2.21-3.05,2.65-4.09,4.22Z"/>
  <path d="M30.24,506.04l-.32-6.39c-.09-1.73.57-3.33.13-5.12-.46-.45-1.54,12.84.19,11.51Z"/>
  <path d="M133.76,506.92c.22.18.65.48.66.35l.09-.85-1.85-8.67c-.45,2.97.17,5.76,1.1,9.17Z"/>
  <path d="M165.63,245.55c1.58,1.21,2.92,2.35,4.37,3.8-1.45-.29-2.81-.74-4.13-.91l-6.06-.76c-1.06.18-.7-.51.03-.92l3.46-1.48c-1.7-1.97-6.85,1.85-6.36,2.73l2.77.53c4.15.79,7.76.86,12.12,2.82-.08-1.49-.5-3.72-1.4-4.51-1.26-1.11-3.1-1.52-4.79-1.29Z"/>
  <path d="M131.33,356.7c-.76,2.45,1.82,4.74,4.02,5.13,2.32.41,5.22-1.27,5.58-3.93s-1.87-4.44-4.17-4.9c-2.09-.42-4.56.94-5.42,3.7ZM134.66,360.55c-2.45-.86-2.46-4.07-1.07-5.49,1.55-1.59,4.23-1.77,5.8.22.91,1.16.52,3.24-.38,4.34-.83,1.01-2.79,1.48-4.35.93Z"/>
  <path d="M127.81,359.35c1.19-.36,2.37-1,3.12-1.89-1.5-1.68-4.4-1.95-5.5-.15-.59.97,1.34,2.35,2.38,2.04Z"/>
  <path d="M62.09,358.44c.05,2.07,2.9,2.83,4.01,1.89.66-.56,1.27-1.59,1.21-2.2-.07-.77-1.31-1.99-2.12-1.94-1.14.07-3.13,1.29-3.1,2.25Z"/>
  <path d="M60.07,355.23c1.57-1.2.38-3.98-1.44-4.19-1.19-.13-2.08,1.84-1.73,2.79.4,1.11,1.78,2.46,3.18,1.4Z"/>
  <path d="M67.68,352.72c1.76.78,2.48-.85,2.69-1.95.18-.94-1.26-2.61-2.32-2.32-.63.18-1.34,1.42-1.47,2s.53,2.02,1.1,2.27Z"/>
  <path d="M158.13,361.85c2.07.43,10.87-2.15,12.95-3.31-1.15-.31-2.19.12-3.44.49l-9.51,2.82Z"/>
  <path d="M107.25,355.28c-.74,2.03-2.06,3.85-2.09,6.07,1.18-1.15,6.51-16.27,6.94-16.26l-1.13-.03-3.72,10.21Z"/>
  <path d="M89.97,269.76c-.47,1.76.5,3.28,1.72,4.03,1.37.84,2.9.7,4.33-.06,1.94-1.03,2.67-2.59,2.04-4.9-.47-1.75-2.44-2.63-4.26-2.55-1.68.08-3.25,1.33-3.83,3.48ZM90.5,270.01c.78-2.77,3.1-3.77,5.21-2.59,1.4.78,2.73,3.21,1.2,4.73-1.11,1.1-2.89,1.7-4.34,1.26-1.03-.31-2.42-2.17-2.07-3.4Z"/>
  <path d="M166.76,260.84c-1.96-.77-4.04.17-4.73,1.99s.17,4.2,2.08,4.93,4.09-.02,4.89-2.04c.71-1.79-.18-4.08-2.25-4.89ZM166.95,266.89c-1,.27-2.7.16-3.38-.25-.64-.39-1.19-1.8-1.14-2.75.08-1.34,1.56-2.51,2.63-2.54,1.3-.03,2.63.79,3.02,1.66.59,1.33.67,3.38-1.13,3.87Z"/>
  <path class="cls-13" d="M93.42,139.51c2.01,1,4.08-.15,4.99-1.73.97-1.67.49-3.87-1.09-5.21-1.87-1.59-4.45-.94-5.73,1.01s-.67,4.69,1.83,5.93Z"/>
  <path class="cls-13" d="M164.06,139.73c2.27.34,3.75-1.4,4.27-3.14s-.27-4.01-2.3-4.79c-2.26-.87-4.56.73-5.15,2.81-.6,2.1.53,4.72,3.18,5.13Z"/>
  <path class="cls-5" d="M140.43,178.02c2.51-6.57-13.18-11.13-17.7-12.67l-5.02-1.71c-4.26-1.45-2.78,10.73,5.79,16.6,5.06,3.46,13.04,3.19,16.93-2.21Z"/>
  <path class="cls-9" d="M112.99,324.77c11.47,4.76,27.95,3.74,39.12-1.03,15.8-6.75,13.8-22.85,11.87-37.24l-3.29.58c.16,1.99.26,3.82.19,5.71l-1.13-5.54c-4.85.61-8.79,1.65-13.57,1.2,3.32-1.03,6.63-1.51,10.15-1.92l7.49-.85-.52-4.07c-.19-1.48-1.94-2.09-3.38-1.87-19.48,3.02-38.78,4.56-58.52,4.64-.9,0-2.42,1.08-2.41,1.85l.05,4.59,4.45-.27.58-4.81c.53,1.39.62,2.95.37,4.49,2.09,1.02,4.77-.96,7.32,1.15l-12.74.54c.52,12.71.36,27.2,13.97,32.84ZM114.62,290.83l30.25-2.56c1.35,2.41-30.58,4.52-30.25,2.56ZM132.73,323.56l13.68-2.6c8.28-2.53,13.99-6.77,14.8-16.28,1.26.29.34,1.99.28,2.77-.32,3.78-1.79,6.46-4.52,8.89-2.21,1.97-4.51,3.49-7.42,4.49-5.39,1.83-11.06,3.81-16.81,2.74ZM114.37,321.18c-3.29-1.32-6.22-3.32-7.33-6.56,1.71,1.28,3.03,2.48,4.43,3.77.99.91,2.44,1.1,2.9,2.79ZM129.41,324.43c-4.73-.46-9.39-.72-13.61-3.02,4.38.94,9.11,2.06,13.38,1.63.33-.03,1.11.28,1.27.46.1.11.1.32-.04.4l-1,.53Z"/>
  <path class="cls-4" d="M116.68,26.76c-.28.45-.11,1.93.31,2.29l4.87,4.22.21,5.92c.03.7.61,1.86,1.09,2.29s2.19.56,2.77.28l6.9-3.37,7.08,1.66c.63.15,2.1-.43,2.46-.92.36-.5.65-1.89.45-2.48l-1.73-4.98,3-4.35c.29-.43.58-1.51.57-1.99-.09-2.55-7.02-2.51-8.66-3.08l-4.35-4.63c-1.15-1.21-3.37-1.08-4.24.33-.95,1.57-1.85,3.5-2.65,5.15l-6.75,2.32c-.42.14-1.1.97-1.33,1.34Z"/>
  <path class="cls-3" d="M134.66,360.55c1.57.55,3.52.08,4.35-.93.9-1.1,1.29-3.18.38-4.34-1.57-1.99-4.25-1.81-5.8-.22-1.39,1.42-1.38,4.62,1.07,5.49Z"/>
  <path class="cls-17" d="M90.5,270.01c-.35,1.23,1.04,3.09,2.07,3.4,1.45.44,3.23-.15,4.34-1.26,1.53-1.52.21-3.94-1.2-4.73-2.11-1.18-4.44-.18-5.21,2.59Z"/>
  <path class="cls-17" d="M166.95,266.89c1.81-.49,1.72-2.54,1.13-3.87-.39-.88-1.73-1.69-3.02-1.66-1.07.02-2.55,1.2-2.63,2.54-.05.95.5,2.36,1.14,2.75.68.41,2.38.52,3.38.25Z"/>
  <path d="M114.62,290.83c-.33,1.95,31.6-.16,30.25-2.56l-30.25,2.56Z"/>
  <path d="M132.73,323.56c5.75,1.07,11.42-.9,16.81-2.74,2.91-.99,5.21-2.51,7.42-4.49,2.73-2.43,4.2-5.11,4.52-8.89.07-.79.99-2.49-.28-2.77-.81,9.51-6.52,13.75-14.8,16.28l-13.68,2.6Z"/>
  <path d="M129.41,324.43l1-.53c.14-.08.14-.29.04-.4-.16-.18-.94-.49-1.27-.46-4.27.43-9-.69-13.38-1.63,4.22,2.3,8.88,2.56,13.61,3.02Z"/>
  <path d="M114.37,321.18c-.46-1.69-1.92-1.88-2.9-2.79-1.4-1.29-2.72-2.49-4.43-3.77,1.11,3.24,4.04,5.24,7.33,6.56Z"/>
  <path class="cls-10" d="M115.77,334.27c-1.51.12-3.06-.23-4.37-.99l2.91-.18-2.37.04,2.66.4h-.3c.01.33.4.57.69.44-.24-.32-.68-.46-1.06-.35.4.02.78-.31.82-.71-.15-.02-.3.14-.27.28s.22.24.35.16c.05-.15-.01-.33-.15-.41s-.33-.04-.43.08"/>
  <path class="cls-10" d="M115.93,335.6c-1.57-1.3-3.74-1.84-5.73-1.41"/>
</svg>